{
  "accessors": [
    {
      "bufferView": 2,
      "componentType": 5126,
      "count": 65532,
      "max": [
        0.16043820977210999,
        -0.04968469589948654,
        -0.56077641248703
      ],
      "min": [
        -0.08365816622972488,
        -0.30337953567504883,
        -0.6364526748657227
      ],
      "type": "VEC3"
    },
    {
      "bufferView": 2,
      "byteOffset": 786384,
      "componentType": 5126,
      "count": 65532,
      "max": [
        0.9999868273735046,
        1.0,
        0.9999985098838806
      ],
      "min": [
        -0.9999991059303284,
        -0.999999463558197,
        -0.9998666048049927
      ],
      "type": "VEC3"
    },
    {
      "bufferView": 1,
      "componentType": 5126,
      "count": 65532,
      "max": [
        0.9994372725486755,
        0.9994066953659058
      ],
      "min": [
        0.00048828125,
        0.0024415254592895508
      ],
      "type": "VEC2"
    },
    {
      "bufferView": 0,
      "componentType": 5125,
      "count": 288933,
      "type": "SCALAR"
    },
    {
      "bufferView": 2,
      "byteOffset": 1572768,
      "componentType": 5126,
      "count": 65532,
      "max": [
        0.160501629114151,
        -0.04968469589948654,
        -0.5529159307479858
      ],
      "min": [
        -0.08365816622972488,
        -0.30337953567504883,
        -0.6364526748657227
      ],
      "type": "VEC3"
    },
    {
      "bufferView": 2,
      "byteOffset": 2359152,
      "componentType": 5126,
      "count": 65532,
      "max": [
        0.9999817609786987,
        0.9999988675117493,
        0.9999990463256836
      ],
      "min": [
        -0.9999871253967285,
        -1.0,
        -0.9989084601402283
      ],
      "type": "VEC3"
    },
    {
      "bufferView": 1,
      "byteOffset": 524256,
      "componentType": 5126,
      "count": 65532,
      "max": [
        0.9995048642158508,
        0.999504029750824
      ],
      "min": [
        0.00048828125,
        0.002949357032775879
      ],
      "type": "VEC2"
    },
    {
      "bufferView": 0,
      "byteOffset": 1155732,
      "componentType": 5125,
      "count": 239514,
      "type": "SCALAR"
    },
    {
      "bufferView": 2,
      "byteOffset": 3145536,
      "componentType": 5126,
      "count": 65534,
      "max": [
        0.1605111062526703,
        -0.17783322930335999,
        -0.5511555671691895
      ],
      "min": [
        -0.07927019149065018,
        -0.30337953567504883,
        -0.6240050196647644
      ],
      "type": "VEC3"
    },
    {
      "bufferView": 2,
      "byteOffset": 3931944,
      "componentType": 5126,
      "count": 65534,
      "max": [
        0.9999997615814209,
        0.9999691843986511,
        0.999993085861206
      ],
      "min": [
        -0.9999991059303284,
        -0.9999919533729553,
        -0.9919546246528625
      ],
      "type": "VEC3"
    },
    {
      "bufferView": 1,
      "byteOffset": 1048512,
      "componentType": 5126,
      "count": 65534,
      "max": [
        0.9994080662727356,
        0.9995102286338806
      ],
      "min": [
        0.00048828125,
        0.006347775459289551
      ],
      "type": "VEC2"
    },
    {
      "bufferView": 0,
      "byteOffset": 2113788,
      "componentType": 5125,
      "count": 234522,
      "type": "SCALAR"
    },
    {
      "bufferView": 2,
      "byteOffset": 4718352,
      "componentType": 5126,
      "count": 2766,
      "max": [
        0.1602870672941208,
        -0.06144283711910248,
        -0.5625615119934082
      ],
      "min": [
        -0.0763869509100914,
        -0.289972186088562,
        -0.6303175091743469
      ],
      "type": "VEC3"
    },
    {
      "bufferView": 2,
      "byteOffset": 4751544,
      "componentType": 5126,
      "count": 2766,
      "max": [
        0.9994960427284241,
        0.9996610879898071,
        0.9997364282608032
      ],
      "min": [
        -0.9988833665847778,
        -0.9990965723991394,
        -0.991414487361908
      ],
      "type": "VEC3"
    },
    {
      "bufferView": 1,
      "byteOffset": 1572784,
      "componentType": 5126,
      "count": 2766,
      "max": [
        0.9943411946296692,
        0.9993522763252258
      ],
      "min": [
        0.00048828125,
        0.09176826477050781
      ],
      "type": "VEC2"
    },
    {
      "bufferView": 0,
      "byteOffset": 3051876,
      "componentType": 5125,
      "count": 5361,
      "type": "SCALAR"
    }
  ],
  "asset": {
    "extras": {
      "author": "teddygbg (https://sketchfab.com/teddygbg)",
      "license": "CC-BY-4.0 (http://creativecommons.org/licenses/by/4.0/)",
      "source": "https://sketchfab.com/3d-models/vent-realityscan-e779d591d51b4b26841b6496d0885156",
      "title": "Vent - RealityScan"
    },
    "generator": "Sketchfab-12.85.0",
    "version": "2.0"
  },
  "bufferViews": [
    {
      "buffer": 0,
      "byteLength": 3073320,
      "name": "floatBufferViews",
      "target": 34963
    },
    {
      "buffer": 0,
      "byteLength": 1594912,
      "byteOffset": 3073320,
      "byteStride": 8,
      "name": "floatBufferViews",
      "target": 34962
    },
    {
      "buffer": 0,
      "byteLength": 4784736,
      "byteOffset": 4668232,
      "byteStride": 12,
      "name": "floatBufferViews",
      "target": 34962
    }
  ],
  "buffers": [
    {
      "byteLength": 9452968,
      "uri": "scene.bin"
    }
  ],
  "images": [
    {
      "uri": "textures/default_tex0_baseColor.jpeg"
    }
  ],
  "materials": [
    {
      "name": "default_tex0",
      "pbrMetallicRoughness": {
        "baseColorTexture": {
          "index": 0
        },
        "metallicFactor": 0.0,
        "roughnessFactor": 0.8033536585365854
      }
    }
  ],
  "meshes": [
    {
      "name": "Object_0",
      "primitives": [
        {
          "attributes": {
            "NORMAL": 1,
            "POSITION": 0,
            "TEXCOORD_0": 2
          },
          "indices": 3,
          "material": 0,
          "mode": 4
        }
      ]
    },
    {
      "name": "Object_1",
      "primitives": [
        {
          "attributes": {
            "NORMAL": 5,
            "POSITION": 4,
            "TEXCOORD_0": 6
          },
          "indices": 7,
          "material": 0,
          "mode": 4
        }
      ]
    },
    {
      "name": "Object_2",
      "primitives": [
        {
          "attributes": {
            "NORMAL": 9,
            "POSITION": 8,
            "TEXCOORD_0": 10
          },
          "indices": 11,
          "material": 0,
          "mode": 4
        }
      ]
    },
    {
      "name": "Object_3",
      "primitives": [
        {
          "attributes": {
            "NORMAL": 13,
            "POSITION": 12,
            "TEXCOORD_0": 14
          },
          "indices": 15,
          "material": 0,
          "mode": 4
        }
      ]
    }
  ],
  "nodes": [
    {
      "children": [
        1
      ],
      "matrix": [
        1.0,
        0.0,
        0.0,
        0.0,
        0.0,
        2.220446049250313e-16,
        -1.0,
        0.0,
        0.0,
        1.0,
        2.220446049250313e-16,
        0.0,
        0.0,
        0.0,
        0.0,
        1.0
      ],
      "name": "Sketchfab_model"
    },
    {
      "children": [
        2
      ],
      "name": "root"
    },
    {
      "children": [
        3
      ],
      "matrix": [
        1.0,
        0.0,
        0.0,
        0.0,
        0.0,
        2.220446049250313e-16,
        1.0,
        0.0,
        0.0,
        -1.0,
        2.220446049250313e-16,
        0.0,
        0.0,
        0.0,
        0.0,
        1.0
      ],
      "name": "GLTF_SceneRootNode"
    },
    {
      "children": [
        4,
        5,
        6,
        7
      ],
      "name": "_0"
    },
    {
      "mesh": 0,
      "name": "Object_4"
    },
    {
      "mesh": 1,
      "name": "Object_5"
    },
    {
      "mesh": 2,
      "name": "Object_6"
    },
    {
      "mesh": 3,
      "name": "Object_7"
    }
  ],
  "samplers": [
    {
      "magFilter": 9729,
      "minFilter": 9729,
      "wrapS": 33071,
      "wrapT": 33071
    }
  ],
  "scene": 0,
  "scenes": [
    {
      "name": "Sketchfab_Scene",
      "nodes": [
        0
      ]
    }
  ],
  "textures": [
    {
      "sampler": 0,
      "source": 0
    }
  ]
}
