{
  "accessors": [
    {
      "bufferView": 3,
      "componentType": 5126,
      "count": 1697,
      "max": [
        0.1509866863489151,
        0.5208991169929504,
        0.15074460208415985
      ],
      "min": [
        -0.14991535246372223,
        0.00021873414516448975,
        -0.1508655548095703
      ],
      "type": "VEC3"
    },
    {
      "bufferView": 3,
      "byteOffset": 20364,
      "componentType": 5126,
      "count": 1697,
      "max": [
        1.0,
        1.0,
        1.0
      ],
      "min": [
        -1.0,
        -1.0,
        -1.0
      ],
      "type": "VEC3"
    },
    {
      "bufferView": 4,
      "componentType": 5126,
      "count": 1697,
      "max": [
        1.0,
        1.0,
        0.9975378513336182,
        1.0
      ],
      "min": [
        -1.0,
        -0.9945857524871826,
        -0.9946466684341431,
        -1.0
      ],
      "type": "VEC4"
    },
    {
      "bufferView": 2,
      "componentType": 5126,
      "count": 1697,
      "max": [
        0.998046875,
        0.9978389739990234
      ],
      "min": [
        0.000980377197265625,
        0.00146484375
      ],
      "type": "VEC2"
    },
    {
      "bufferView": 2,
      "byteOffset": 13576,
      "componentType": 5126,
      "count": 1697,
      "max": [
        0.9912109375,
        0.9921875
      ],
      "min": [
        0.0078125,
        0.01416015625
      ],
      "type": "VEC2"
    },
    {
      "bufferView": 1,
      "componentType": 5125,
      "count": 8460,
      "type": "SCALAR"
    },
    {
      "bufferView": 5,
      "componentType": 5126,
      "count": 9,
      "max": [
        100.0,
        8.575299359492305e-10,
        1.3775547813565936e-08,
        0.0,
        0.0,
        100.0,
        5.343242719391128e-07,
        0.0,
        0.0,
        0.0,
        100.0,
        0.0,
        0.0006346520967781544,
        0.0,
        8.803544698787746e-12,
        1.0
      ],
      "min": [
        1.0,
        -8.634440782584544e-17,
        0.0,
        0.0,
        -8.575368193319832e-10,
        1.0,
        0.0,
        0.0,
        -1.3775547813565936e-08,
        -5.343242719391128e-07,
        1.0,
        0.0,
        0.0,
        -0.3420443832874298,
        -1.382866836720318e-15,
        1.0
      ],
      "type": "MAT4"
    },
    {
      "bufferView": 0,
      "componentType": 5123,
      "count": 1697,
      "type": "VEC4"
    },
    {
      "bufferView": 4,
      "byteOffset": 27152,
      "componentType": 5126,
      "count": 1697,
      "max": [
        1.0,
        0.5,
        0.0,
        0.0
      ],
      "min": [
        0.5,
        0.0,
        0.0,
        0.0
      ],
      "type": "VEC4"
    }
  ],
  "asset": {
    "extras": {
      "author": "Funkin_Boombox (https://sketchfab.com/Funkin_Boombox)",
      "license": "CC-BY-4.0 (http://creativecommons.org/licenses/by/4.0/)",
      "source": "https://sketchfab.com/3d-models/fnaf-hw-prototype-cupcake-0b73c117fcf34d4086354f4fa8423e90",
      "title": "Fnaf hw prototype cupcake"
    },
    "generator": "Sketchfab-15.47.0",
    "version": "2.0"
  },
  "bufferViews": [
    {
      "buffer": 0,
      "byteLength": 13576,
      "byteStride": 8,
      "name": "shortBufferViews",
      "target": 34962
    },
    {
      "buffer": 0,
      "byteLength": 33840,
      "byteOffset": 13576,
      "name": "floatBufferViews",
      "target": 34963
    },
    {
      "buffer": 0,
      "byteLength": 27152,
      "byteOffset": 47416,
      "byteStride": 8,
      "name": "floatBufferViews",
      "target": 34962
    },
    {
      "buffer": 0,
      "byteLength": 40728,
      "byteOffset": 74568,
      "byteStride": 12,
      "name": "floatBufferViews",
      "target": 34962
    },
    {
      "buffer": 0,
      "byteLength": 54304,
      "byteOffset": 115296,
      "byteStride": 16,
      "name": "floatBufferViews",
      "target": 34962
    },
    {
      "buffer": 0,
      "byteLength": 576,
      "byteOffset": 169600,
      "name": "floatBufferViews"
    }
  ],
  "buffers": [
    {
      "byteLength": 170176,
      "uri": "scene.bin"
    }
  ],
  "images": [
    {
      "uri": "textures/DemoCUpcake_baseColor.png"
    },
    {
      "uri": "textures/DemoCUpcake_metallicRoughness.png"
    },
    {
      "uri": "textures/DemoCUpcake_normal.png"
    }
  ],
  "materials": [
    {
      "doubleSided": true,
      "emissiveTexture": {
        "index": 0
      },
      "name": "DemoCUpcake",
      "normalTexture": {
        "index": 2
      },
      "occlusionTexture": {
        "index": 1
      },
      "pbrMetallicRoughness": {
        "baseColorTexture": {
          "index": 0
        },
        "metallicRoughnessTexture": {
          "index": 1
        }
      }
    }
  ],
  "meshes": [
    {
      "name": "MOD_Cupcake.mo_DemoCUpcake_0",
      "primitives": [
        {
          "attributes": {
            "JOINTS_0": 7,
            "NORMAL": 1,
            "POSITION": 0,
            "TANGENT": 2,
            "TEXCOORD_0": 3,
            "TEXCOORD_1": 4,
            "TEXCOORD_2": 3,
            "TEXCOORD_3": 3,
            "WEIGHTS_0": 8
          },
          "indices": 5,
          "material": 0,
          "mode": 4
        }
      ]
    }
  ],
  "nodes": [
    {
      "children": [
        1
      ],
      "matrix": [
        1.0,
        0.0,
        0.0,
        0.0,
        0.0,
        2.220446049250313e-16,
        -1.0,
        0.0,
        0.0,
        1.0,
        2.220446049250313e-16,
        0.0,
        0.0,
        0.0,
        0.0,
        1.0
      ],
      "name": "Sketchfab_model"
    },
    {
      "children": [
        2
      ],
      "matrix": [
        0.009999999776482582,
        0.0,
        0.0,
        0.0,
        0.0,
        0.0,
        0.009999999776482582,
        0.0,
        0.0,
        -0.009999999776482582,
        0.0,
        0.0,
        0.0,
        0.0,
        0.0,
        1.0
      ],
      "name": "DemoCupcake.fbx"
    },
    {
      "children": [
        3,
        6,
        8
      ],
      "name": "RootNode"
    },
    {
      "children": [
        4
      ],
      "matrix": [
        -29.08647719990347,
        -5.518906457566863,
        -95.51711910171437,
        0.0,
        56.63930913109449,
        79.46723428563203,
        -21.83912397841966,
        0.0,
        77.11008775993375,
        -60.45246356562044,
        -19.98834696773717,
        0.0,
        407.6245422363281,
        590.38623046875,
        -100.54539489746094,
        1.0
      ],
      "name": "Light"
    },
    {
      "children": [
        5
      ],
      "matrix": [
        1.0,
        0.0,
        0.0,
        0.0,
        0.0,
        2.220446049250313e-16,
        1.0,
        0.0,
        0.0,
        -1.0,
        2.220446049250313e-16,
        0.0,
        0.0,
        0.0,
        0.0,
        1.0
      ],
      "name": "Object_4"
    },
    {
      "name": "Object_5"
    },
    {
      "children": [
        7
      ],
      "matrix": [
        -65.15583280329096,
        -44.52713576570858,
        -61.41703047373549,
        0.0,
        -32.40134137821245,
        89.53957451233616,
        -30.542088974418615,
        0.0,
        68.59205472129975,
        -1.0718647115348782e-05,
        -72.7676336239627,
        0.0,
        735.88916015625,
        495.8309326171875,
        692.5791015625,
        1.0
      ],
      "name": "Camera"
    },
    {
      "name": "Object_7"
    },
    {
      "children": [
        9
      ],
      "matrix": [
        100.0,
        0.0,
        0.0,
        0.0,
        0.0,
        -1.629206793918314e-05,
        -99.99999999999868,
        0.0,
        0.0,
        99.99999999999868,
        -1.629206793918314e-05,
        0.0,
        0.0,
        0.0,
        0.0,
        1.0
      ],
      "name": "RIG_Cupcake"
    },
    {
      "children": [
        10,
        12,
        11
      ],
      "name": "Object_9"
    },
    {
      "children": [
        13
      ],
      "name": "_rootJoint"
    },
    {
      "matrix": [
        100.00000000000001,
        -4.268458755926761e-21,
        -1.0164395367051604e-20,
        0.0,
        -1.016439536705451e-20,
        -1.8146425263900252e-12,
        -100.00000000002784,
        0.0,
        4.268458755927763e-21,
        100.00000000002781,
        -1.8146425263900246e-12,
        0.0,
        0.0,
        0.0,
        0.0,
        1.0
      ],
      "name": "Object_11"
    },
    {
      "mesh": 0,
      "name": "Object_12",
      "skin": 0
    },
    {
      "children": [
        14
      ],
      "name": "C_World_jnt_00",
      "rotation": [
        0.7071065902709961,
        4.870381875576868e-09,
        4.8703805433092384e-09,
        0.7071069478988647
      ]
    },
    {
      "children": [
        15
      ],
      "name": "CupcakeBaseBottom_jnt_01",
      "rotation": [
        -5.293955920339377e-23,
        1.737079286361358e-23,
        4.1065675345105036e-22,
        1.0
      ],
      "translation": [
        -2.1351990836534016e-23,
        0.01775163970887661,
        8.881784197001252e-16
      ]
    },
    {
      "children": [
        16
      ],
      "name": "CupcakeBaseTop_jnt_02",
      "rotation": [
        -4.263256414560601e-14,
        1.4210854715202004e-14,
        -3.338519935412843e-23,
        1.0
      ],
      "translation": [
        -0.0006346519221551716,
        0.12287763506174088,
        -8.732890278972949e-12
      ]
    },
    {
      "children": [
        17
      ],
      "name": "CupcakeFrostingBottom_jnt_03",
      "rotation": [
        7.105722802693004e-14,
        -4.287644961298298e-10,
        -4.287649679746153e-10,
        1.0
      ],
      "translation": [
        0.0,
        0.022822022438049316,
        -3.552713678800501e-15
      ]
    },
    {
      "children": [
        18
      ],
      "name": "CupcakeFrostingTop_jnt_04",
      "rotation": [
        8.5262173840292e-14,
        4.286792310015386e-10,
        4.287649957301909e-10,
        1.0
      ],
      "translation": [
        -2.3749037458831168e-11,
        0.13575656712055206,
        -7.101957910649048e-15
      ]
    },
    {
      "children": [
        19
      ],
      "name": "Candle_jnt_05",
      "rotation": [
        -2.1316282072803006e-13,
        4.440892098500626e-16,
        -2.775740864786633e-17,
        1.0
      ],
      "translation": [
        1.919037845299343e-17,
        0.04283648729324341,
        -5.293955920339377e-23
      ]
    },
    {
      "children": [
        20
      ],
      "name": "Candle_jnt_end_06",
      "rotation": [
        1.7053025658242404e-13,
        1.3234889800848443e-23,
        1.9448767093678037e-21,
        1.0
      ],
      "translation": [
        -1.0842021724855044e-19,
        0.042836517095565796,
        0.0
      ]
    },
    {
      "name": "Candle_jnt_end_end_07",
      "rotation": [
        5.293955920339377e-23,
        -0.0,
        -7.888609052210118e-31,
        1.0
      ],
      "translation": [
        1.0842021724855044e-19,
        0.042836517095565796,
        0.0
      ]
    }
  ],
  "samplers": [
    {
      "magFilter": 9729,
      "minFilter": 9987,
      "wrapS": 10497,
      "wrapT": 10497
    }
  ],
  "scene": 0,
  "scenes": [
    {
      "name": "Sketchfab_Scene",
      "nodes": [
        0
      ]
    }
  ],
  "skins": [
    {
      "inverseBindMatrices": 6,
      "joints": [
        10,
        13,
        14,
        15,
        16,
        17,
        18,
        19,
        20
      ],
      "skeleton": 10
    }
  ],
  "textures": [
    {
      "sampler": 0,
      "source": 0
    },
    {
      "sampler": 0,
      "source": 1
    },
    {
      "sampler": 0,
      "source": 2
    }
  ]
}
