{
  "accessors": [
    {
      "bufferView": 2,
      "componentType": 5126,
      "count": 65532,
      "max": [
        1.8289235830307007,
        1.9591000080108643,
        1.5186511278152466
      ],
      "min": [
        -1.0797990560531616,
        -2.607238292694092,
        -1.747057318687439
      ],
      "type": "VEC3"
    },
    {
      "bufferView": 2,
      "byteOffset": 786384,
      "componentType": 5126,
      "count": 65532,
      "max": [
        0.9999978542327881,
        0.9999165534973145,
        0.9997758865356445
      ],
      "min": [
        -0.9999973177909851,
        -0.9999659061431885,
        -0.9999898076057434
      ],
      "type": "VEC3"
    },
    {
      "bufferView": 1,
      "componentType": 5126,
      "count": 65532,
      "max": [
        0.9999887347221375,
        0.9994056224822998
      ],
      "min": [
        1.145433634519577e-05,
        0.00034635537303984165
      ],
      "type": "VEC2"
    },
    {
      "bufferView": 0,
      "componentType": 5125,
      "count": 327891,
      "type": "SCALAR"
    },
    {
      "bufferView": 2,
      "byteOffset": 1572768,
      "componentType": 5126,
      "count": 65532,
      "max": [
        1.8233884572982788,
        1.977038860321045,
        1.5150386095046997
      ],
      "min": [
        -1.6407922506332397,
        -2.591388463973999,
        -1.747057318687439
      ],
      "type": "VEC3"
    },
    {
      "bufferView": 2,
      "byteOffset": 2359152,
      "componentType": 5126,
      "count": 65532,
      "max": [
        0.9999978542327881,
        0.9999165534973145,
        0.9999399781227112
      ],
      "min": [
        -0.9999805092811584,
        -0.9999659061431885,
        -0.9998100399971008
      ],
      "type": "VEC3"
    },
    {
      "bufferView": 1,
      "byteOffset": 524256,
      "componentType": 5126,
      "count": 65532,
      "max": [
        0.9999993443489075,
        0.9997175931930542
      ],
      "min": [
        1.0288786143064499e-05,
        2.5082379579544067e-05
      ],
      "type": "VEC2"
    },
    {
      "bufferView": 0,
      "byteOffset": 1311564,
      "componentType": 5125,
      "count": 271848,
      "type": "SCALAR"
    },
    {
      "bufferView": 2,
      "byteOffset": 3145536,
      "componentType": 5126,
      "count": 192,
      "max": [
        1.779915690422058,
        1.2432503700256348,
        0.6817241311073303
      ],
      "min": [
        0.1880670189857483,
        -1.044569492340088,
        -1.3490036725997925
      ],
      "type": "VEC3"
    },
    {
      "bufferView": 2,
      "byteOffset": 3147840,
      "componentType": 5126,
      "count": 192,
      "max": [
        0.9989031553268433,
        0.9244456887245178,
        0.9493920803070068
      ],
      "min": [
        -0.9826358556747437,
        -0.8510653376579285,
        -0.938423216342926
      ],
      "type": "VEC3"
    },
    {
      "bufferView": 1,
      "byteOffset": 1048512,
      "componentType": 5126,
      "count": 192,
      "max": [
        0.9999163150787354,
        0.9976881146430969
      ],
      "min": [
        0.053834691643714905,
        0.0020536710508167744
      ],
      "type": "VEC2"
    },
    {
      "bufferView": 0,
      "byteOffset": 2398956,
      "componentType": 5125,
      "count": 261,
      "type": "SCALAR"
    }
  ],
  "asset": {
    "extras": {
      "author": "Artyom Tarakanov (https://sketchfab.com/artyomtarakanov)",
      "license": "CC-BY-4.0 (http://creativecommons.org/licenses/by/4.0/)",
      "source": "https://sketchfab.com/3d-models/agisoftclotheschallenge-checkered-jacket-796531a764284083803f6f8d6030d249",
      "title": "#AgisoftClothesChallenge Checkered Jacket"
    },
    "generator": "Sketchfab-12.66.0",
    "version": "2.0"
  },
  "bufferViews": [
    {
      "buffer": 0,
      "byteLength": 2400000,
      "name": "floatBufferViews",
      "target": 34963
    },
    {
      "buffer": 0,
      "byteLength": 1050048,
      "byteOffset": 2400000,
      "byteStride": 8,
      "name": "floatBufferViews",
      "target": 34962
    },
    {
      "buffer": 0,
      "byteLength": 3150144,
      "byteOffset": 3450048,
      "byteStride": 12,
      "name": "floatBufferViews",
      "target": 34962
    }
  ],
  "buffers": [
    {
      "byteLength": 6600192,
      "uri": "scene.bin"
    }
  ],
  "images": [
    {
      "uri": "textures/material0_baseColor.jpeg"
    }
  ],
  "materials": [
    {
      "doubleSided": true,
      "name": "material0",
      "pbrMetallicRoughness": {
        "baseColorTexture": {
          "index": 0
        },
        "metallicFactor": 0.0,
        "roughnessFactor": 0.9577051494623774
      }
    }
  ],
  "meshes": [
    {
      "name": "Model_material0_0",
      "primitives": [
        {
          "attributes": {
            "NORMAL": 1,
            "POSITION": 0,
            "TEXCOORD_0": 2
          },
          "indices": 3,
          "material": 0,
          "mode": 4
        }
      ]
    },
    {
      "name": "Model_material0_0",
      "primitives": [
        {
          "attributes": {
            "NORMAL": 5,
            "POSITION": 4,
            "TEXCOORD_0": 6
          },
          "indices": 7,
          "material": 0,
          "mode": 4
        }
      ]
    },
    {
      "name": "Model_material0_0",
      "primitives": [
        {
          "attributes": {
            "NORMAL": 9,
            "POSITION": 8,
            "TEXCOORD_0": 10
          },
          "indices": 11,
          "material": 0,
          "mode": 4
        }
      ]
    }
  ],
  "nodes": [
    {
      "children": [
        1
      ],
      "matrix": [
        0.15068047553940644,
        9.690667648368213e-18,
        -0.04364288721016241,
        0.0,
        0.022134307707084577,
        0.13520095839409937,
        0.0764204230552901,
        0.0,
        0.03761348356309924,
        -0.07956135048984961,
        0.1298634837233736,
        0.0,
        -0.06812937557697296,
        -0.09944722801446902,
        -0.5369787812232971,
        1.0
      ],
      "name": "Sketchfab_model"
    },
    {
      "children": [
        2
      ],
      "matrix": [
        1.0,
        0.0,
        0.0,
        0.0,
        0.0,
        -1.0,
        0.0,
        0.0,
        0.0,
        0.0,
        -1.0,
        0.0,
        0.0,
        0.0,
        0.0,
        1.0
      ],
      "name": "model.fbx"
    },
    {
      "children": [
        3
      ],
      "name": "RootNode"
    },
    {
      "children": [
        4,
        5,
        6
      ],
      "name": "Model"
    },
    {
      "mesh": 0,
      "name": "Model_material0_0"
    },
    {
      "mesh": 1,
      "name": "Model_material0_0"
    },
    {
      "mesh": 2,
      "name": "Model_material0_0"
    }
  ],
  "samplers": [
    {
      "magFilter": 9729,
      "minFilter": 9987,
      "wrapS": 10497,
      "wrapT": 10497
    }
  ],
  "scene": 0,
  "scenes": [
    {
      "name": "Sketchfab_Scene",
      "nodes": [
        0
      ]
    }
  ],
  "textures": [
    {
      "sampler": 0,
      "source": 0
    }
  ]
}
