{
  "accessors": [
    {
      "bufferView": 2,
      "componentType": 5126,
      "count": 2918,
      "max": [
        3.5435261726379395,
        4.073644161224365,
        10.201946258544922
      ],
      "min": [
        -3.619619846343994,
        -4.476057052612305,
        -1.455392599105835
      ],
      "type": "VEC3"
    },
    {
      "bufferView": 2,
      "byteOffset": 35016,
      "componentType": 5126,
      "count": 2918,
      "max": [
        1.0,
        1.0,
        1.0
      ],
      "min": [
        -1.0,
        -1.0,
        -1.0
      ],
      "type": "VEC3"
    },
    {
      "bufferView": 3,
      "componentType": 5126,
      "count": 2918,
      "max": [
        1.0,
        1.0,
        1.0,
        1.0
      ],
      "min": [
        -1.0,
        -1.0,
        -1.0,
        -1.0
      ],
      "type": "VEC4"
    },
    {
      "bufferView": 1,
      "componentType": 5126,
      "count": 2918,
      "max": [
        0.9878601431846619,
        0.998779296875
      ],
      "min": [
        0.001220703125,
        0.001220703125
      ],
      "type": "VEC2"
    },
    {
      "bufferView": 0,
      "componentType": 5125,
      "count": 8604,
      "type": "SCALAR"
    },
    {
      "bufferView": 2,
      "byteOffset": 70032,
      "componentType": 5126,
      "count": 23163,
      "max": [
        2.6115386486053467,
        2.1358938217163086,
        0.2702878713607788
      ],
      "min": [
        -11.179737091064453,
        -2.3352580070495605,
        -0.5844971537590027
      ],
      "type": "VEC3"
    },
    {
      "bufferView": 2,
      "byteOffset": 347988,
      "componentType": 5126,
      "count": 23163,
      "max": [
        1.0,
        1.0,
        1.0
      ],
      "min": [
        -1.0,
        -1.0,
        -1.0
      ],
      "type": "VEC3"
    },
    {
      "bufferView": 3,
      "byteOffset": 46688,
      "componentType": 5126,
      "count": 23163,
      "max": [
        1.0,
        1.0,
        1.0,
        1.0
      ],
      "min": [
        -1.0,
        -1.0,
        -1.0,
        -1.0
      ],
      "type": "VEC4"
    },
    {
      "bufferView": 1,
      "byteOffset": 23344,
      "componentType": 5126,
      "count": 23163,
      "max": [
        0.977552592754364,
        0.99951171875
      ],
      "min": [
        0.00048828125,
        0.00048828125
      ],
      "type": "VEC2"
    },
    {
      "bufferView": 0,
      "byteOffset": 34416,
      "componentType": 5125,
      "count": 89766,
      "type": "SCALAR"
    },
    {
      "bufferView": 2,
      "byteOffset": 625944,
      "componentType": 5126,
      "count": 24691,
      "max": [
        0.42144596576690674,
        2.3101117610931396,
        6.049891471862793
      ],
      "min": [
        -2.0546979904174805,
        -2.5287342071533203,
        0.028568029403686523
      ],
      "type": "VEC3"
    },
    {
      "bufferView": 2,
      "byteOffset": 922236,
      "componentType": 5126,
      "count": 24691,
      "max": [
        1.0,
        1.0,
        1.0
      ],
      "min": [
        -1.0,
        -1.0,
        -1.0
      ],
      "type": "VEC3"
    },
    {
      "bufferView": 3,
      "byteOffset": 417296,
      "componentType": 5126,
      "count": 24691,
      "max": [
        1.0,
        1.0,
        1.0,
        1.0
      ],
      "min": [
        -1.0,
        -1.0,
        -1.0,
        -1.0
      ],
      "type": "VEC4"
    },
    {
      "bufferView": 1,
      "byteOffset": 208648,
      "componentType": 5126,
      "count": 24691,
      "max": [
        0.999584972858429,
        0.9530347585678101
      ],
      "min": [
        0.0004150390741415322,
        0.0004150390741415322
      ],
      "type": "VEC2"
    },
    {
      "bufferView": 0,
      "byteOffset": 393480,
      "componentType": 5125,
      "count": 73122,
      "type": "SCALAR"
    },
    {
      "bufferView": 2,
      "byteOffset": 1218528,
      "componentType": 5126,
      "count": 4682,
      "max": [
        0.12753796577453613,
        1.3530831336975098,
        0.3767992854118347
      ],
      "min": [
        -4.982181549072266,
        -1.6449520587921143,
        -4.150272369384766
      ],
      "type": "VEC3"
    },
    {
      "bufferView": 2,
      "byteOffset": 1274712,
      "componentType": 5126,
      "count": 4682,
      "max": [
        1.0,
        1.0,
        1.0
      ],
      "min": [
        -1.0,
        -1.0,
        -1.0
      ],
      "type": "VEC3"
    },
    {
      "bufferView": 3,
      "byteOffset": 812352,
      "componentType": 5126,
      "count": 4682,
      "max": [
        0.9975452423095703,
        0.9952061772346497,
        0.9463792443275452,
        1.0
      ],
      "min": [
        -0.9948524236679077,
        -0.995190441608429,
        -1.0,
        1.0
      ],
      "type": "VEC4"
    },
    {
      "bufferView": 1,
      "byteOffset": 406176,
      "componentType": 5126,
      "count": 4682,
      "max": [
        0.7350205779075623,
        0.9951171875
      ],
      "min": [
        0.0048828125,
        0.0048828125
      ],
      "type": "VEC2"
    },
    {
      "bufferView": 0,
      "byteOffset": 685968,
      "componentType": 5125,
      "count": 7512,
      "type": "SCALAR"
    }
  ],
  "asset": {
    "extras": {
      "author": "visualdiscette (https://sketchfab.com/visualdiscette)",
      "license": "CC-BY-4.0 (http://creativecommons.org/licenses/by/4.0/)",
      "source": "https://sketchfab.com/3d-models/ibanez-electric-guitar-66e8fd4f231f406fa97fca379c0f4687",
      "title": "Ibanez Electric Guitar"
    },
    "generator": "Sketchfab-16.52.0",
    "version": "2.0"
  },
  "bufferViews": [
    {
      "buffer": 0,
      "byteLength": 716016,
      "name": "floatBufferViews",
      "target": 34963
    },
    {
      "buffer": 0,
      "byteLength": 443632,
      "byteOffset": 716016,
      "byteStride": 8,
      "name": "floatBufferViews",
      "target": 34962
    },
    {
      "buffer": 0,
      "byteLength": 1330896,
      "byteOffset": 1159648,
      "byteStride": 12,
      "name": "floatBufferViews",
      "target": 34962
    },
    {
      "buffer": 0,
      "byteLength": 887264,
      "byteOffset": 2490544,
      "byteStride": 16,
      "name": "floatBufferViews",
      "target": 34962
    }
  ],
  "buffers": [
    {
      "byteLength": 3377808,
      "uri": "scene.bin"
    }
  ],
  "images": [
    {
      "uri": "textures/stand_baseColor.png"
    },
    {
      "uri": "textures/stand_metallicRoughness.png"
    },
    {
      "uri": "textures/stand_normal.png"
    },
    {
      "uri": "textures/guitar_baseColor.png"
    },
    {
      "uri": "textures/guitar_metallicRoughness.png"
    },
    {
      "uri": "textures/guitar_normal.png"
    },
    {
      "uri": "textures/material_baseColor.png"
    },
    {
      "uri": "textures/material_metallicRoughness.png"
    },
    {
      "uri": "textures/material_emissive.png"
    },
    {
      "uri": "textures/material_normal.png"
    },
    {
      "uri": "textures/cable_baseColor.png"
    },
    {
      "uri": "textures/cable_metallicRoughness.png"
    },
    {
      "uri": "textures/cable_normal.png"
    }
  ],
  "materials": [
    {
      "doubleSided": true,
      "name": "stand",
      "normalTexture": {
        "index": 2
      },
      "occlusionTexture": {
        "index": 1
      },
      "pbrMetallicRoughness": {
        "baseColorTexture": {
          "index": 0
        },
        "metallicRoughnessTexture": {
          "index": 1
        }
      }
    },
    {
      "doubleSided": true,
      "name": "guitar",
      "normalTexture": {
        "index": 5
      },
      "occlusionTexture": {
        "index": 4
      },
      "pbrMetallicRoughness": {
        "baseColorTexture": {
          "index": 3
        },
        "metallicRoughnessTexture": {
          "index": 4
        }
      }
    },
    {
      "doubleSided": true,
      "emissiveFactor": [
        1.0,
        1.0,
        1.0
      ],
      "emissiveTexture": {
        "index": 8
      },
      "name": "material",
      "normalTexture": {
        "index": 9
      },
      "occlusionTexture": {
        "index": 7
      },
      "pbrMetallicRoughness": {
        "baseColorTexture": {
          "index": 6
        },
        "metallicRoughnessTexture": {
          "index": 7
        }
      }
    },
    {
      "doubleSided": true,
      "name": "cable",
      "normalTexture": {
        "index": 12
      },
      "occlusionTexture": {
        "index": 11
      },
      "pbrMetallicRoughness": {
        "baseColorTexture": {
          "index": 10
        },
        "metallicFactor": 0.0,
        "metallicRoughnessTexture": {
          "index": 11
        }
      }
    }
  ],
  "meshes": [
    {
      "name": "slant_low_stand_0",
      "primitives": [
        {
          "attributes": {
            "NORMAL": 1,
            "POSITION": 0,
            "TANGENT": 2,
            "TEXCOORD_0": 3
          },
          "indices": 4,
          "material": 0,
          "mode": 4
        }
      ]
    },
    {
      "name": "body_low_guitar_0",
      "primitives": [
        {
          "attributes": {
            "NORMAL": 6,
            "POSITION": 5,
            "TANGENT": 7,
            "TEXCOORD_0": 8
          },
          "indices": 9,
          "material": 1,
          "mode": 4
        }
      ]
    },
    {
      "name": "body_low.001_amp_0",
      "primitives": [
        {
          "attributes": {
            "NORMAL": 11,
            "POSITION": 10,
            "TANGENT": 12,
            "TEXCOORD_0": 13
          },
          "indices": 14,
          "material": 2,
          "mode": 4
        }
      ]
    },
    {
      "name": "cable_low.001_cable_0",
      "primitives": [
        {
          "attributes": {
            "NORMAL": 16,
            "POSITION": 15,
            "TANGENT": 17,
            "TEXCOORD_0": 18
          },
          "indices": 19,
          "material": 3,
          "mode": 4
        }
      ]
    }
  ],
  "nodes": [
    {
      "children": [
        1
      ],
      "matrix": [
        1.0,
        0.0,
        0.0,
        0.0,
        0.0,
        2.220446049250313e-16,
        -1.0,
        0.0,
        0.0,
        1.0,
        2.220446049250313e-16,
        0.0,
        0.0,
        0.0,
        0.0,
        1.0
      ],
      "name": "Sketchfab_model"
    },
    {
      "children": [
        2
      ],
      "matrix": [
        0.009999999776482582,
        0.0,
        0.0,
        0.0,
        0.0,
        0.0,
        0.009999999776482582,
        0.0,
        0.0,
        -0.009999999776482582,
        0.0,
        0.0,
        0.0,
        0.0,
        0.0,
        1.0
      ],
      "name": "5e5cae2cee9e4008a244e9078e05ca46.fbx"
    },
    {
      "children": [
        3,
        5,
        7,
        9
      ],
      "name": "RootNode"
    },
    {
      "children": [
        4
      ],
      "matrix": [
        63.757120821106,
        19.03643141090566,
        -2.0721990342091403,
        0.0,
        -0.06370836466529166,
        -6.993038438583509,
        -66.20230790019576,
        0.0,
        -19.148781659378898,
        63.40633835098516,
        -6.679269013401138,
        0.0,
        -0.11556148529052734,
        -1.3902485370635986,
        104.5969009399414,
        1.0
      ],
      "name": "slant_low"
    },
    {
      "mesh": 0,
      "name": "slant_low_stand_0"
    },
    {
      "children": [
        6
      ],
      "matrix": [
        7.535790582830466e-06,
        -99.81457278389958,
        51.951991725758866,
        0.0,
        112.52536773681555,
        1.3022530828509302e-06,
        -1.382013947699396e-05,
        0.0,
        1.1657786174986236e-05,
        51.95199172575939,
        99.81457278389891,
        0.0,
        9.304022086098485e-08,
        412.8161926269531,
        166.1704559326172,
        1.0
      ],
      "name": "body_low"
    },
    {
      "mesh": 1,
      "name": "body_low_guitar_0"
    },
    {
      "children": [
        8
      ],
      "matrix": [
        24.568445430207717,
        5.085560820947913e-07,
        20.516034398894107,
        0.0,
        20.516034398892714,
        -1.24214198460008e-05,
        -24.568445430205745,
        0.0,
        7.57133709839421e-06,
        32.00806427001712,
        -9.860281678035411e-06,
        0.0,
        -318.4822692871094,
        -1.9965410232543945,
        432.95489501953125,
        1.0
      ],
      "name": "body_low.001"
    },
    {
      "mesh": 2,
      "name": "body_low.001_amp_0"
    },
    {
      "children": [
        10
      ],
      "matrix": [
        -63.853113090495796,
        -3.814849241568389e-06,
        76.95957963044474,
        0.0,
        -5.799910000997927e-06,
        99.99999999999983,
        1.4478528861418382e-07,
        0.0,
        -76.9595796304446,
        -4.371136441634911e-06,
        -63.85311309049591,
        0.0,
        -313.0525207519531,
        162.12799072265625,
        496.1239929199219,
        1.0
      ],
      "name": "cable_low.001"
    },
    {
      "mesh": 3,
      "name": "cable_low.001_cable_0"
    }
  ],
  "samplers": [
    {
      "magFilter": 9729,
      "minFilter": 9987,
      "wrapS": 10497,
      "wrapT": 10497
    }
  ],
  "scene": 0,
  "scenes": [
    {
      "name": "Sketchfab_Scene",
      "nodes": [
        0
      ]
    }
  ],
  "textures": [
    {
      "sampler": 0,
      "source": 0
    },
    {
      "sampler": 0,
      "source": 1
    },
    {
      "sampler": 0,
      "source": 2
    },
    {
      "sampler": 0,
      "source": 3
    },
    {
      "sampler": 0,
      "source": 4
    },
    {
      "sampler": 0,
      "source": 5
    },
    {
      "sampler": 0,
      "source": 6
    },
    {
      "sampler": 0,
      "source": 7
    },
    {
      "sampler": 0,
      "source": 8
    },
    {
      "sampler": 0,
      "source": 9
    },
    {
      "sampler": 0,
      "source": 10
    },
    {
      "sampler": 0,
      "source": 11
    },
    {
      "sampler": 0,
      "source": 12
    }
  ]
}
