<?xml version="1.0" standalone="no"?>
<!DOCTYPE svg PUBLIC "-//W3C//DTD SVG 20010904//EN"
 "http://www.w3.org/TR/2001/REC-SVG-20010904/DTD/svg10.dtd">
<svg version="1.0" xmlns="http://www.w3.org/2000/svg"
 width="1200.000000pt" height="1600.000000pt" viewBox="0 0 1200.000000 1600.000000"
 preserveAspectRatio="xMidYMid meet">

<g transform="translate(0.000000,1600.000000) scale(0.100000,-0.100000)"
fill="#000000" stroke="none">
<path d="M0 8000 l0 -8000 6000 0 6000 0 0 8000 0 8000 -6000 0 -6000 0 0
-8000z m7177 5340 c57 -16 97 -19 205 -17 l133 2 80 -38 c57 -28 98 -56 145
-103 l65 -64 68 1 c62 2 70 0 97 -26 24 -23 30 -37 30 -71 0 -37 -5 -47 -35
-70 -29 -22 -51 -28 -119 -34 -85 -8 -132 -27 -207 -83 -50 -36 -118 -31 -220
19 -108 54 -112 55 -189 64 -97 12 -120 20 -173 56 -27 18 -65 36 -85 39 -50
9 -81 24 -118 60 -51 49 -58 70 -42 123 10 36 22 51 57 74 25 15 54 31 65 34
12 4 28 12 36 19 45 37 109 42 207 15z m-1522 -3655 c17 -8 41 -19 55 -25 24
-10 48 -25 105 -65 21 -15 47 -20 107 -21 57 -1 86 -7 106 -20 15 -10 38 -17
52 -15 33 4 80 32 80 48 0 7 5 13 10 13 6 0 10 5 10 12 0 15 69 78 84 78 11
-1 56 -64 56 -81 0 -5 -4 -9 -10 -9 -5 0 -7 -6 -4 -14 7 -19 -20 -71 -48 -90
-19 -13 -22 -26 -23 -94 -2 -76 -29 -190 -48 -203 -5 -4 -4 -10 2 -14 7 -4 18
-1 26 5 8 6 19 9 24 5 7 -3 8 0 5 9 -5 12 0 16 17 16 13 0 47 17 74 38 28 20
63 43 78 49 15 7 30 20 33 28 3 8 44 34 91 57 47 24 98 50 112 58 47 26 151
124 151 141 0 5 11 9 25 9 18 0 28 7 35 24 5 14 19 25 37 29 24 5 35 -2 73
-42 25 -26 62 -72 83 -102 20 -30 53 -68 73 -84 19 -17 76 -69 126 -118 81
-78 180 -156 238 -187 12 -6 40 -13 63 -16 23 -3 65 -11 94 -20 41 -11 86 -13
200 -9 214 9 312 7 352 -6 26 -9 36 -9 39 0 7 20 42 12 54 -14 6 -13 27 -35
47 -48 65 -44 87 -71 106 -132 23 -72 26 -91 19 -127 -5 -23 -11 -28 -34 -28
-17 0 -30 -7 -34 -17 -16 -43 -39 -73 -71 -93 -34 -21 -39 -21 -124 -9 -67 9
-104 10 -156 1 -54 -9 -74 -8 -104 3 -60 22 -170 38 -224 31 -29 -3 -87 -15
-129 -26 -42 -11 -110 -24 -150 -29 -40 -5 -131 -18 -203 -29 -71 -11 -133
-18 -138 -15 -23 14 -190 -42 -225 -74 -7 -7 -17 -13 -22 -13 -5 0 -15 -6 -22
-12 -7 -7 -34 -29 -60 -48 -60 -45 -69 -61 -75 -132 l-6 -58 47 -21 c43 -18
54 -19 114 -10 112 18 300 20 362 4 33 -9 73 -12 100 -8 25 3 90 8 145 10 55
2 127 6 160 9 257 24 225 23 472 14 165 -6 196 -13 263 -58 14 -10 45 -20 70
-24 25 -4 58 -13 74 -21 16 -8 40 -15 54 -15 14 0 33 -6 41 -14 9 -8 28 -17
44 -20 15 -2 44 -14 64 -25 37 -20 114 -45 141 -46 8 0 18 -8 23 -18 6 -9 17
-17 24 -17 8 0 15 -4 15 -10 0 -5 6 -10 14 -10 8 0 18 -10 22 -22 10 -34 74
-129 90 -135 8 -3 14 -13 14 -23 0 -10 5 -20 11 -22 15 -5 15 -351 0 -356 -7
-2 -6 -10 2 -23 10 -16 9 -21 -2 -28 -11 -7 -13 -25 -8 -83 3 -40 3 -67 -2
-60 -11 18 -21 -7 -21 -54 0 -19 -4 -34 -10 -34 -5 0 -10 9 -10 20 0 13 -7 20
-20 20 -11 0 -20 -4 -20 -9 0 -6 -15 -8 -32 -5 -45 6 -77 -19 -60 -46 10 -16
10 -20 0 -21 -10 0 -10 -2 0 -6 15 -6 16 -49 1 -59 -8 -4 -7 -9 2 -15 11 -6 9
-13 -9 -32 -12 -13 -22 -29 -22 -35 0 -7 -9 -12 -20 -12 -32 0 -78 -27 -85
-50 -4 -11 -11 -18 -16 -15 -5 4 -9 1 -9 -4 0 -6 -8 -11 -18 -11 -13 0 -22 12
-30 38 -14 46 -47 70 -61 44 -5 -9 -12 -32 -16 -49 -3 -18 -10 -33 -13 -33 -4
0 -13 -15 -21 -32 -21 -50 -34 -56 -105 -51 l-63 5 -11 -45 c-18 -68 -16 -117
4 -117 9 0 36 -20 60 -44 36 -35 44 -50 44 -80 l0 -36 60 0 c51 0 60 -3 60
-18 0 -9 14 -28 30 -42 29 -24 30 -28 30 -102 0 -51 -4 -78 -11 -78 -8 0 -10
-14 -6 -39 2 -21 2 -42 -2 -47 -8 -12 -61 -15 -61 -3 0 5 -4 9 -10 9 -5 0 -10
-7 -10 -15 0 -8 -4 -15 -9 -15 -18 0 -23 -41 -8 -63 8 -12 17 -40 20 -62 4
-24 3 -32 -2 -20 -7 16 -9 13 -15 -20 -5 -26 -4 -41 3 -43 6 -2 11 -10 11 -18
0 -17 76 -20 82 -3 4 13 39 0 37 -15 -1 -6 5 -28 14 -48 10 -21 17 -42 17 -48
0 -6 4 -9 9 -6 5 3 11 -8 15 -25 4 -20 13 -33 26 -36 15 -4 20 -12 18 -27 -1
-12 7 -35 20 -50 16 -21 22 -42 22 -77 0 -43 3 -49 30 -61 17 -7 30 -16 30
-20 0 -5 17 -8 39 -8 30 0 40 4 44 20 3 14 14 20 31 20 25 0 26 -2 20 -37 -3
-21 -8 -57 -11 -80 -3 -28 -10 -43 -19 -43 -8 0 -22 -4 -32 -9 -9 -5 -25 -12
-34 -15 -11 -3 -15 -11 -12 -21 4 -10 0 -15 -10 -15 -16 0 -20 -24 -16 -97 1
-28 -3 -34 -35 -48 -46 -19 -45 -19 -45 2 0 21 -13 9 -15 -15 -1 -9 -7 -27
-13 -39 -9 -17 -10 -28 -2 -43 6 -11 7 -20 2 -20 -11 0 -10 -50 1 -67 5 -7 5
-13 0 -13 -4 0 -8 -20 -9 -45 -1 -60 -16 -75 -75 -75 -42 0 -49 -3 -49 -20 0
-15 -7 -20 -24 -20 -14 0 -28 4 -31 10 -9 14 -26 12 -24 -2 3 -29 -3 -36 -47
-49 -48 -15 -80 -39 -50 -39 25 0 21 -74 -6 -113 -30 -45 -60 -67 -80 -61 -31
9 -58 -5 -58 -32 0 -13 -6 -24 -12 -24 -8 0 -9 -3 -3 -8 43 -31 42 -132 -1
-173 l-24 -23 -20 22 c-11 12 -20 26 -20 32 0 5 -4 10 -10 10 -5 0 -32 14 -60
31 -30 19 -59 29 -70 26 -11 -3 -20 -1 -20 5 0 5 -19 9 -42 7 -50 -2 -118 10
-118 21 0 4 -28 13 -62 19 -56 9 -67 16 -101 53 -91 104 -101 109 -181 84 -56
-18 -104 -14 -113 10 -3 8 -11 14 -19 14 -8 0 -14 4 -14 9 0 5 -13 11 -30 14
-16 4 -46 17 -67 30 -29 19 -59 26 -128 32 -53 4 -108 15 -132 26 -55 25 -220
61 -300 67 -35 2 -63 8 -63 13 0 4 -14 15 -30 24 -17 9 -41 32 -54 53 -13 20
-33 47 -45 59 -12 12 -21 25 -21 28 0 10 -54 54 -67 55 -6 0 -18 6 -25 13 -22
23 -51 35 -99 42 -37 5 -49 3 -60 -9 -8 -9 -19 -22 -25 -29 -20 -22 -35 -57
-29 -67 3 -5 7 -43 10 -86 3 -43 8 -80 12 -83 5 -3 9 -13 11 -21 2 -8 10 -22
18 -31 8 -8 14 -19 14 -22 0 -15 45 -57 61 -57 10 0 31 -19 46 -43 l29 -42 74
-2 c60 -1 84 -6 120 -27 25 -14 57 -32 71 -40 15 -9 53 -20 85 -26 110 -20
119 -23 126 -34 4 -6 13 -11 20 -12 7 -1 28 -8 47 -16 30 -14 40 -14 75 -2 37
13 41 13 63 -8 28 -26 67 -27 142 -2 54 17 55 17 69 -4 8 -12 21 -22 30 -22
22 0 142 -58 142 -69 0 -5 24 -23 53 -39 30 -17 73 -52 98 -79 24 -26 58 -55
74 -63 17 -8 36 -23 43 -32 7 -10 19 -18 27 -18 8 0 18 -6 22 -14 4 -7 32 -26
62 -41 50 -25 62 -33 94 -61 7 -6 30 -14 51 -18 43 -8 116 -70 116 -99 0 -19
-47 -66 -67 -67 -30 -1 -20 -85 14 -117 26 -25 53 -30 54 -10 0 6 4 2 9 -10
12 -28 30 -30 30 -3 0 11 6 20 14 20 11 0 13 -10 9 -40 -4 -26 -2 -40 6 -40 6
0 11 5 11 11 0 5 5 7 12 3 9 -6 9 -9 0 -12 -7 -2 -10 -7 -8 -10 2 -4 -16 -5
-40 -3 -42 3 -44 2 -44 -24 0 -14 -4 -35 -10 -45 -13 -24 3 -36 57 -45 52 -8
83 -38 65 -63 -7 -9 -15 -25 -18 -35 -4 -9 -15 -17 -25 -17 -25 0 -42 -44 -34
-86 6 -35 -11 -84 -30 -84 -7 0 -20 -9 -30 -20 -10 -11 -26 -20 -37 -20 -10 0
-18 -7 -18 -15 0 -8 -6 -15 -12 -16 -10 0 -10 -2 0 -6 20 -8 15 -63 -5 -64
-17 -1 -17 -2 -1 -6 15 -4 16 -8 7 -26 -15 -30 -50 -56 -74 -57 -11 0 -28 -12
-38 -25 -17 -24 -17 -25 2 -44 20 -20 20 -20 -35 -74 -29 -30 -54 -62 -54 -72
0 -9 -8 -19 -19 -22 -15 -4 -17 -11 -11 -44 4 -21 13 -45 20 -54 10 -12 9 -16
-4 -21 -19 -7 -22 -34 -4 -34 21 0 -26 -27 -59 -35 -18 -3 -33 -11 -33 -16 0
-5 -9 -9 -20 -9 -17 0 -19 3 -10 19 15 29 13 31 -22 31 -32 0 -32 0 -11 -15
19 -13 21 -19 11 -40 -6 -14 -15 -25 -20 -25 -4 0 -8 -7 -8 -15 0 -8 -18 -23
-40 -32 -22 -10 -40 -21 -40 -25 0 -5 -17 -8 -39 -8 -70 0 -133 -66 -115 -122
8 -28 -5 -58 -27 -58 -11 0 -19 -7 -19 -16 0 -15 -87 -104 -103 -104 -4 0 -16
-20 -27 -45 -11 -25 -23 -44 -27 -44 -4 1 -16 -1 -25 -5 -20 -9 -25 -56 -5
-57 6 0 23 -2 37 -3 14 -2 28 2 33 8 4 7 9 3 13 -11 4 -13 11 -23 17 -23 6 0
2 -6 -8 -14 -17 -12 -77 -8 -92 8 -10 10 -33 -23 -33 -48 0 -16 -6 -26 -15
-26 -8 0 -15 -6 -15 -13 0 -16 -32 -44 -57 -49 -10 -2 -18 -10 -18 -18 0 -8
-16 -19 -37 -25 -20 -5 -40 -13 -44 -17 -4 -4 -23 -5 -43 -2 -40 6 -121 -22
-121 -42 0 -7 -6 -14 -13 -17 -8 -3 -14 -27 -15 -65 -2 -57 -5 -62 -49 -106
-25 -25 -48 -46 -50 -46 -3 0 -16 -9 -29 -19 -40 -32 -89 -21 -131 29 -35 41
-38 42 -85 38 -34 -4 -54 -12 -68 -28 -17 -19 -26 -22 -62 -17 -31 5 -38 4
-23 -3 15 -7 8 -8 -22 -4 -34 5 -43 3 -43 -9 0 -8 -9 -17 -20 -20 -11 -3 -20
-14 -20 -24 0 -10 -9 -36 -19 -57 -11 -21 -17 -45 -14 -53 4 -11 2 -14 -5 -9
-7 4 -13 -7 -17 -31 -10 -64 -16 -68 -81 -65 -32 1 -63 7 -68 12 -6 6 -23 10
-38 10 -15 0 -28 6 -29 13 0 9 -2 9 -5 0 -6 -14 -74 -5 -89 12 -18 21 -97 37
-133 26 -29 -9 -34 -8 -41 12 -5 12 -6 27 -4 34 3 6 -5 16 -16 23 -12 6 -21
20 -21 30 0 11 -4 20 -9 20 -12 0 -71 52 -71 63 0 4 -11 20 -25 35 -28 30 -49
93 -41 120 8 24 -45 50 -112 56 -57 4 -114 33 -92 46 9 6 4 13 -19 25 -36 18
-71 12 -71 -13 -1 -12 -5 -10 -15 8 -7 14 -26 32 -41 40 -16 8 -37 23 -47 33
-10 10 -25 16 -32 13 -7 -2 -15 4 -18 16 -4 13 -11 19 -21 15 -9 -4 -20 1 -26
11 -7 13 -12 14 -18 4 -9 -13 -46 -6 -37 8 2 4 -2 16 -10 26 -8 10 -15 27 -15
37 0 9 -4 17 -10 17 -5 0 -10 16 -10 36 0 25 -8 44 -30 67 -16 18 -30 38 -30
45 0 6 -10 12 -22 12 -17 0 -29 13 -47 50 -14 28 -29 50 -33 50 -4 0 -8 7 -8
15 0 8 -8 23 -18 33 -10 10 -22 25 -25 33 -22 46 -54 82 -66 75 -5 -3 -14 1
-21 10 -11 12 -15 12 -22 2 -6 -8 -7 7 -3 40 4 40 3 52 -8 52 -8 0 -22 9 -32
20 -10 11 -23 20 -29 20 -23 0 -86 70 -86 94 0 27 -24 56 -46 56 -8 0 -14 7
-14 15 0 7 -6 18 -14 22 -7 4 -26 35 -42 68 -15 33 -33 65 -39 70 -16 15 -68
46 -87 52 -10 3 -18 9 -18 14 0 5 -9 9 -19 9 -11 0 -22 4 -25 9 -3 5 -30 11
-61 13 -43 4 -60 10 -79 31 -14 15 -30 27 -35 27 -17 0 -24 46 -11 69 9 17 8
22 -4 27 -9 3 -21 21 -28 40 -6 19 -18 34 -25 34 -7 0 -13 11 -13 23 0 13 -9
34 -20 47 -11 13 -20 31 -20 40 0 10 -10 29 -21 44 -16 20 -20 36 -16 59 3 18
-1 50 -8 72 -8 21 -12 42 -9 47 6 9 83 -20 102 -39 17 -16 27 -16 40 0 15 18
-13 52 -63 76 -23 12 -32 20 -22 21 24 0 11 20 -14 20 -25 0 -25 17 1 25 15 5
18 12 13 36 -8 42 31 79 82 79 29 0 39 6 55 33 10 17 22 37 27 42 4 6 17 28
28 50 11 21 32 53 47 69 16 17 44 62 64 102 36 72 70 107 164 169 25 16 62 46
82 66 36 34 39 35 90 28 63 -8 91 5 112 55 19 45 23 47 130 67 27 4 54 13 60
19 5 5 21 10 35 10 13 0 21 3 17 7 -4 4 16 18 44 30 38 17 57 20 70 13 33 -18
79 -11 137 20 31 17 63 28 71 25 7 -3 26 2 42 10 16 8 38 15 49 15 25 0 71 20
71 32 0 13 83 92 110 104 19 9 29 26 43 71 19 67 21 83 8 83 -5 0 -11 10 -13
22 -2 17 -12 24 -45 31 -35 7 -47 16 -79 63 -40 57 -92 104 -118 104 -8 0 -18
5 -22 11 -8 13 -113 6 -123 -9 -3 -5 -23 -20 -43 -33 -42 -28 -90 -86 -110
-130 -7 -16 -16 -29 -19 -29 -3 0 -32 -25 -64 -56 -55 -52 -60 -55 -97 -49
-21 4 -44 3 -51 -2 -7 -5 -31 -9 -54 -9 -24 1 -43 -2 -43 -6 0 -5 -19 -8 -43
-8 -63 0 -187 -42 -187 -63 0 -14 -68 -73 -120 -104 -111 -66 -175 -143 -195
-232 -4 -18 -25 -53 -47 -79 -80 -95 -183 -202 -195 -202 -7 0 -13 -4 -13 -10
0 -5 -13 -10 -29 -10 -17 0 -33 -5 -37 -11 -4 -7 -22 -9 -50 -4 -46 7 -59 -6
-32 -33 8 -8 9 -12 1 -12 -16 0 -43 29 -43 46 0 8 4 14 10 14 5 0 7 7 4 15 -4
9 -13 13 -23 10 -23 -7 -65 38 -86 93 -10 23 -21 42 -26 42 -5 0 -9 13 -9 29
0 16 -6 34 -14 40 -8 7 -18 26 -21 42 -10 47 -32 83 -62 102 -16 11 -37 36
-47 58 -23 47 -47 201 -33 210 6 4 7 37 2 84 -6 63 -4 77 7 73 10 -4 12 5 9
38 -1 24 -7 44 -12 44 -5 0 6 14 25 31 20 17 40 28 46 24 6 -4 22 1 35 9 19
12 25 25 25 51 0 21 6 37 16 43 14 8 16 19 11 58 -3 27 -9 61 -13 77 -5 21 -3
27 10 27 9 0 16 4 16 9 0 5 10 11 22 15 18 4 20 8 11 17 -9 9 -10 16 -2 26 9
10 7 13 -10 13 -18 0 -21 6 -21 39 0 31 6 44 26 60 18 14 25 27 21 40 -4 17 1
20 31 23 30 2 36 7 37 27 1 14 7 27 13 29 22 7 12 22 -15 22 -25 1 -26 2 -9
12 14 8 24 8 38 -1 30 -19 22 16 -9 36 -19 13 -28 14 -31 5 -2 -7 -8 -10 -13
-6 -5 3 -2 12 6 21 11 11 15 31 14 67 -1 28 4 65 11 81 7 17 12 36 11 42 -3
21 18 53 32 48 15 -7 34 23 42 67 5 26 2 38 -14 52 -16 14 -18 23 -10 37 9 17
6 19 -26 19 -26 0 -35 4 -35 16 0 19 -45 64 -64 64 -7 0 -19 11 -26 25 -7 14
-17 25 -22 25 -4 0 -8 24 -8 54 0 50 2 54 30 66 35 14 40 45 9 55 -11 4 -18 9
-15 12 12 12 -16 43 -40 43 -19 0 -28 8 -40 35 -16 39 -19 85 -5 85 13 0 64
147 56 161 -3 4 4 5 15 2 16 -4 20 0 20 21 0 38 28 89 46 82 9 -3 20 6 29 24
9 17 18 30 21 30 3 0 2 -4 -1 -10 -3 -5 -2 -10 4 -10 5 0 13 5 16 10 3 6 15
10 26 10 15 0 19 7 19 38 0 21 7 47 15 58 8 10 15 29 15 42 0 13 6 22 15 22
10 0 15 10 15 30 0 34 19 80 33 80 6 0 25 11 43 25 18 14 42 25 53 25 11 0 25
9 31 20 6 11 19 20 30 20 10 0 22 5 25 10 4 6 11 8 16 4 5 -3 21 1 34 10 13 9
31 16 40 16 26 0 97 52 86 63 -5 5 -7 16 -4 23 3 8 3 14 0 14 -2 0 -40 9 -83
20 -44 11 -96 20 -116 20 -21 0 -38 5 -38 10 0 6 -7 10 -14 10 -23 0 -66 63
-66 96 0 42 56 94 155 144 69 35 137 79 158 103 29 34 21 54 -29 73 -55 21
-110 74 -119 115 -4 16 -11 29 -16 29 -9 0 -141 78 -149 89 -24 30 -111 39
-165 17 -58 -25 -200 -170 -252 -259 -27 -44 -48 -84 -48 -87 0 -4 -30 -35
-67 -68 -47 -42 -79 -63 -104 -68 -62 -12 -65 -7 -108 161 -7 28 -20 66 -28
85 -15 36 -13 95 3 106 5 3 9 14 9 24 0 10 8 21 18 24 9 3 28 22 41 41 13 20
43 50 65 68 23 17 42 35 44 39 4 8 90 68 98 68 3 0 12 7 21 16 9 8 21 13 29
10 7 -3 30 3 51 14 38 18 117 42 141 43 6 0 12 4 12 8 0 4 30 9 68 12 37 3
105 10 152 15 94 12 407 15 810 7 290 -5 300 -6 412 -25 l76 -14 31 30 c24 22
31 38 31 65 0 24 -5 39 -15 43 -8 3 -15 13 -15 22 0 28 -58 110 -87 124 -80
38 -96 46 -110 63 -9 9 -20 17 -26 17 -5 0 -22 11 -39 25 -16 14 -37 25 -46
25 -9 0 -30 7 -46 15 -15 8 -72 22 -125 31 -53 8 -105 19 -116 23 -11 5 -33
14 -48 20 -38 15 -111 31 -166 37 -87 9 -111 13 -155 28 -55 19 -99 21 -152 9
-72 -18 -221 6 -253 41 -24 26 -25 30 -23 163 l2 102 38 10 c59 17 95 13 148
-16 129 -70 137 -72 225 -65 19 2 119 95 119 111 0 7 55 97 85 139 18 25 30
24 100 -8 22 -11 65 -28 95 -40 30 -12 65 -28 78 -36 41 -27 175 -3 264 46 22
13 144 13 166 1 34 -18 145 -20 175 -3 15 9 27 21 27 27 6 106 13 153 29 190
20 46 80 115 99 115 6 0 14 9 17 20 4 11 10 18 15 15 4 -3 11 15 14 40 8 49
55 100 86 92 9 -2 23 1 32 7 20 14 124 9 163 -9z m-2350 -3595 c3 -5 2 -10 -4
-10 -5 0 -17 -3 -27 -7 -16 -6 -17 -5 -4 10 17 19 26 21 35 7z m5302 -56 c1
-5 -2 -16 -7 -24 -12 -20 -35 2 -26 25 6 17 27 16 33 -1z m122 -3 c7 -5 10
-14 7 -20 -4 -6 0 -11 8 -11 20 0 20 -20 2 -45 -13 -19 -15 -18 -60 5 -47 25
-58 40 -31 40 14 0 19 12 16 33 -1 10 41 9 58 -2z m311 -539 c0 -24 -67 -46
-75 -24 -3 8 -4 16 -3 16 8 4 64 24 71 25 4 1 7 -7 7 -17z m-60 -329 c0 -21
-5 -45 -10 -53 -6 -10 -10 -11 -10 -2 0 6 -7 12 -15 12 -11 0 -15 11 -15 40 0
36 3 40 25 40 22 0 25 -4 25 -37z m-43 -59 c8 -21 -13 -42 -28 -27 -13 13 -5
43 11 43 6 0 13 -7 17 -16z m-5527 -134 c0 -5 -4 -10 -10 -10 -5 0 -10 5 -10
10 0 6 5 10 10 10 6 0 10 -4 10 -10z m71 -3178 c40 -20 107 -69 130 -94 9 -10
19 -18 23 -18 4 0 22 -11 39 -24 18 -13 42 -27 55 -31 12 -3 22 -10 22 -14 0
-4 15 -15 33 -24 130 -63 209 -98 252 -112 28 -10 64 -23 80 -31 109 -47 195
-77 277 -95 51 -11 109 -29 129 -40 20 -10 48 -19 61 -19 61 0 139 -53 233
-159 114 -129 139 -150 226 -196 50 -25 112 -61 137 -79 26 -18 63 -38 82 -45
39 -15 62 -23 104 -40 15 -6 60 -14 99 -16 38 -3 75 -9 81 -14 6 -6 34 -17 61
-27 67 -23 417 -27 482 -5 34 11 53 12 99 2 32 -6 65 -18 75 -27 15 -14 26
-14 86 -4 81 15 162 16 258 5 56 -6 78 -4 109 9 22 9 36 19 33 22 -3 3 -2 11
3 18 29 36 58 66 64 66 4 0 39 16 79 35 39 19 78 35 84 35 7 0 13 5 13 11 0 5
4 8 8 5 14 -9 97 15 105 30 5 8 12 12 17 9 5 -3 11 -1 15 5 3 5 16 10 28 10
12 0 31 7 41 15 11 8 27 15 37 15 9 0 19 7 23 15 3 8 27 25 53 37 26 13 51 27
54 32 4 5 12 5 18 2 6 -4 11 -2 11 4 0 7 7 10 15 6 8 -3 15 -1 15 3 0 5 8 7
18 4 14 -3 25 8 45 49 15 29 27 61 27 70 0 25 43 87 60 88 8 0 24 7 34 15 11
8 30 15 41 15 41 0 60 35 60 113 0 70 0 70 30 78 17 5 70 12 118 15 l88 7 16
38 c8 22 19 39 25 39 5 0 19 12 32 26 21 25 24 26 51 13 35 -17 44 -39 17 -39
-11 0 -23 -8 -27 -17 -6 -17 -7 -17 -21 1 -19 27 -39 7 -30 -29 5 -21 11 -25
27 -20 17 6 20 3 16 -12 -3 -10 -11 -37 -16 -59 -6 -23 -18 -47 -26 -54 -8 -7
-15 -21 -15 -31 0 -11 -6 -19 -13 -19 -7 0 -17 -10 -22 -22 -6 -13 -20 -27
-32 -33 -15 -6 -21 -15 -18 -27 5 -12 1 -15 -14 -11 -16 4 -24 -3 -38 -31 -9
-20 -21 -36 -26 -36 -4 0 -15 -7 -23 -15 -9 -8 -25 -15 -36 -15 -16 0 -19 -5
-16 -25 4 -19 1 -25 -13 -25 -13 0 -24 -13 -35 -40 -14 -36 -20 -40 -50 -40
-34 0 -34 0 -34 -48 0 -45 -3 -50 -34 -67 -27 -15 -48 -17 -116 -12 -69 4 -93
2 -137 -15 -29 -10 -53 -24 -53 -29 0 -5 -19 -18 -42 -30 -23 -12 -48 -28 -56
-35 -7 -8 -20 -14 -28 -14 -8 0 -17 -7 -20 -15 -15 -38 -98 -68 -289 -103 -85
-16 -165 -50 -165 -70 0 -6 -20 -15 -44 -21 -24 -6 -49 -17 -56 -26 -7 -8 -21
-15 -31 -15 -9 0 -25 -7 -34 -16 -9 -10 -28 -18 -41 -20 -14 -1 -30 -7 -37
-12 -7 -5 -25 -12 -40 -16 -15 -4 -58 -20 -95 -37 -98 -45 -228 -85 -301 -93
-36 -4 -77 -14 -91 -21 -15 -8 -36 -14 -46 -15 -26 0 -96 -8 -181 -21 -92 -13
-292 -14 -363 -1 -55 10 -99 10 -280 -3 -93 -6 -204 7 -216 26 -3 5 -16 9 -29
9 -13 0 -26 4 -29 8 -3 5 -33 17 -68 27 -42 13 -90 39 -143 78 -44 33 -83 64
-86 69 -3 5 -8 9 -10 8 -2 -1 -23 3 -45 9 -23 6 -88 13 -145 15 -103 3 -208
19 -242 37 -9 5 -48 16 -85 25 -37 9 -73 21 -80 27 -8 6 -22 16 -32 22 -51 30
-108 70 -135 95 -16 15 -46 36 -65 46 -19 10 -37 22 -40 25 -3 3 -30 18 -60
32 -60 29 -100 59 -100 76 0 5 -13 18 -30 28 -16 9 -30 20 -30 24 0 4 -13 9
-29 12 -31 6 -71 42 -71 63 0 6 -7 14 -15 18 -22 8 -19 38 3 34 11 -2 25 2 33
8 8 7 23 14 34 16 18 3 20 12 23 97 2 74 6 92 17 88 8 -4 17 5 24 24 9 26 8
29 -12 29 -18 0 -25 8 -34 40 -9 36 -8 40 8 40 15 0 19 8 19 40 0 22 -4 40
-10 40 -13 0 -13 47 0 55 13 8 2 53 -21 87 -22 31 -25 84 -5 103 7 8 16 11 20
8 3 -4 6 3 6 15 0 19 6 22 38 22 21 0 53 -8 73 -18z m1719 -232 c0 -11 -7 -23
-16 -27 -20 -8 -36 17 -22 34 16 20 38 15 38 -7z m2900 16 c0 -3 -4 -8 -10
-11 -5 -3 -10 -1 -10 4 0 6 5 11 10 11 6 0 10 -2 10 -4z m-2900 -70 c0 -9 -8
-12 -25 -8 -37 7 -41 22 -6 22 20 0 31 -5 31 -14z m2487 -508 c-3 -8 -6 -5 -6
6 -1 11 2 17 5 13 3 -3 4 -12 1 -19z m-3900 -449 c80 -19 93 -26 93 -53 0 -29
-22 -54 -53 -60 -56 -12 -149 -15 -172 -6 -30 11 -32 26 -5 35 11 4 18 10 15
14 -8 13 19 59 40 70 26 13 27 13 82 0z m3923 -270 c0 -5 -11 -9 -25 -9 -24 0
-32 10 -19 22 8 8 44 -3 44 -13z"/>
<path d="M7920 7849 c0 -5 -25 -9 -55 -9 -35 0 -55 -4 -55 -12 0 -6 -3 -8 -7
-4 -4 3 -28 -14 -53 -39 -54 -53 -104 -68 -144 -41 -14 9 -39 16 -56 16 -16 0
-30 4 -30 9 0 5 -21 14 -46 19 -52 11 -95 0 -134 -35 -14 -13 -28 -23 -31 -23
-4 0 -9 -13 -11 -30 -3 -16 -1 -30 2 -30 14 0 59 -75 76 -125 42 -126 164
-252 258 -266 67 -10 208 55 285 130 72 70 112 101 132 101 26 0 89 -59 106
-97 7 -18 11 -46 7 -61 -13 -61 -64 -142 -90 -142 -6 0 -14 -6 -17 -14 -3 -8
-19 -17 -35 -21 -17 -3 -33 -13 -36 -21 -3 -8 -11 -14 -18 -14 -12 0 -48 -34
-48 -45 0 -3 7 -5 15 -5 8 0 15 -7 15 -15 0 -8 11 -17 25 -21 14 -3 22 -10 19
-15 -3 -5 1 -6 9 -4 7 3 26 -1 41 -9 16 -8 34 -12 41 -10 7 3 40 -2 73 -10 33
-9 71 -16 85 -16 14 0 33 -7 41 -16 18 -17 112 -17 160 0 22 8 30 8 33 -1 7
-20 23 -15 23 7 0 13 9 22 25 26 14 3 34 17 44 30 10 13 23 24 29 24 21 0 55
76 59 134 2 32 8 67 13 77 29 53 -6 146 -88 236 -35 37 -69 82 -76 98 -7 17
-28 50 -47 75 -19 25 -42 57 -51 71 -17 26 -95 71 -158 90 -45 14 -330 21
-330 8z m-236 -234 c13 -14 26 -42 28 -63 8 -68 -73 -121 -106 -69 -39 61 -22
157 29 157 15 0 36 -11 49 -25z"/>
<path d="M5100 7760 c-16 -16 -20 -33 -20 -80 0 -52 -3 -62 -25 -76 -23 -15
-82 -12 -95 5 -7 10 -136 71 -149 71 -6 0 -11 4 -11 8 0 5 -24 18 -53 30 -40
17 -72 22 -137 22 -108 0 -120 -7 -85 -48 29 -34 55 -92 55 -121 0 -33 -48
-81 -82 -81 -35 0 -84 44 -94 85 -9 34 10 90 42 124 31 33 30 37 -7 50 -40 14
-109 14 -109 1 0 -5 -6 -10 -14 -10 -7 0 -25 -12 -39 -26 -26 -25 -26 -27 -10
-57 38 -74 106 -166 199 -273 l54 -61 95 -17 c115 -20 164 -42 165 -73 0 -23
-3 -27 -75 -88 -25 -22 -63 -55 -83 -72 -20 -18 -42 -33 -48 -33 -16 0 -107
-104 -111 -127 -2 -10 -4 -43 -3 -73 1 -42 7 -62 26 -87 20 -26 22 -33 10 -33
-9 0 -16 -4 -16 -10 0 -14 44 -12 58 2 10 10 14 10 21 0 5 -8 22 -12 42 -10
23 2 40 -3 54 -17 35 -33 65 -82 65 -104 0 -12 4 -21 8 -21 5 0 14 -18 21 -40
7 -23 18 -40 26 -40 22 0 65 -41 65 -61 0 -10 4 -19 10 -21 5 -1 10 -43 11
-93 1 -108 -19 -196 -102 -446 -58 -174 -69 -240 -55 -305 8 -37 44 -60 72
-46 11 5 32 16 48 23 16 8 31 22 34 32 2 9 9 17 14 17 6 0 8 6 5 14 -3 8 -2
16 4 18 12 4 69 163 69 192 0 11 6 32 13 46 21 39 41 74 53 90 16 22 74 176
74 196 0 24 33 73 81 119 22 22 52 61 65 88 13 26 28 47 33 47 5 0 7 9 4 20
-3 11 0 40 6 63 6 23 13 53 15 67 3 14 12 50 21 80 8 30 19 81 24 112 5 32 13
62 16 69 4 6 2 28 -5 49 -11 32 -10 45 9 97 11 32 23 81 27 108 8 72 25 145
33 145 4 0 6 12 4 28 -2 16 4 39 16 57 12 17 25 37 31 45 5 8 14 26 20 40 5
14 14 32 19 40 17 27 41 124 42 170 3 105 -50 145 -205 156 -32 2 -64 8 -70
13 -7 6 -29 12 -49 14 -20 2 -40 7 -44 10 -14 14 -64 6 -83 -13z"/>
<path d="M6272 7504 c-12 -8 -26 -13 -31 -10 -11 7 -111 -34 -111 -45 0 -5 9
-9 19 -9 14 0 18 -5 14 -19 -3 -11 6 -30 22 -47 15 -16 37 -40 50 -54 13 -14
30 -39 39 -57 9 -18 24 -37 33 -42 14 -8 15 -13 6 -19 -20 -13 54 -76 104 -91
23 -6 48 -17 56 -24 28 -26 76 -46 81 -34 2 7 5 2 5 -9 1 -23 50 -50 73 -41
20 7 58 -11 58 -28 0 -8 7 -15 15 -15 8 0 15 -4 15 -10 0 -5 17 -17 38 -25 20
-9 48 -23 62 -33 14 -9 31 -17 39 -18 8 -2 17 -7 20 -12 3 -5 45 -15 92 -22
97 -13 116 -8 139 37 8 15 21 34 28 41 17 18 15 42 -3 42 -8 0 -15 6 -15 13
-1 12 -44 67 -54 67 -2 0 -15 9 -28 19 -12 11 -39 33 -58 49 -19 16 -59 42
-88 58 -29 16 -54 36 -57 45 -3 9 -17 22 -30 29 -14 7 -25 19 -25 27 0 7 -12
19 -27 26 -16 6 -34 20 -41 29 -7 10 -22 18 -33 18 -16 0 -19 5 -14 20 4 13 1
22 -9 26 -9 3 -27 31 -42 61 -20 43 -28 53 -36 42 -7 -10 -8 -8 -3 9 3 12 2
22 -3 22 -5 0 -12 -9 -15 -20 -3 -12 -14 -20 -25 -20 -12 0 -24 -5 -27 -10 -4
-6 -11 -8 -16 -5 -5 4 -9 -1 -9 -9 0 -21 -3 -20 -46 9 -20 14 -45 25 -54 25
-10 0 -23 7 -30 15 -16 19 -50 19 -78 -1z m295 -56 c-3 -8 -6 -5 -6 6 -1 11 2
17 5 13 3 -3 4 -12 1 -19z"/>
<path d="M6891 7455 c-17 -20 -31 -46 -31 -59 0 -34 33 -59 70 -54 16 3 30 0
30 -5 0 -14 101 -2 110 13 25 41 -65 140 -128 140 -11 0 -34 -16 -51 -35z"/>
<path d="M6243 6760 c0 -25 2 -35 4 -22 2 12 2 32 0 45 -2 12 -4 2 -4 -23z"/>
<path d="M6320 6705 c0 -11 -11 -15 -37 -16 -29 0 -43 -7 -60 -28 -20 -26 -21
-30 -7 -42 13 -11 12 -15 -13 -35 -27 -23 -27 -23 -5 -24 32 0 28 -13 -19 -53
-25 -23 -41 -46 -43 -64 -2 -15 -4 -31 -5 -35 0 -5 -6 -8 -12 -8 -19 0 -39
-28 -39 -53 0 -14 -6 -27 -12 -30 -20 -6 6 -68 47 -113 19 -21 35 -45 35 -55
0 -9 8 -27 18 -40 25 -33 98 -197 107 -239 4 -19 16 -47 26 -62 11 -14 19 -31
19 -37 0 -6 9 -11 19 -11 10 0 21 -7 25 -15 3 -9 18 -15 38 -15 60 -1 208 -44
208 -61 0 -13 57 -72 82 -85 46 -24 66 -18 74 20 7 41 -11 162 -32 201 -8 15
-14 32 -14 39 0 20 -72 120 -139 192 -36 38 -73 86 -82 105 -8 19 -27 59 -41
89 -56 119 -62 135 -60 174 0 22 -7 59 -17 81 -13 29 -17 56 -13 94 3 35 -1
67 -13 97 -16 43 -35 59 -35 29z"/>
<path d="M8526 6175 c-4 -10 1 -15 14 -15 11 0 20 7 20 15 0 8 -6 15 -14 15
-8 0 -16 -7 -20 -15z"/>
<path d="M8387 5633 c-10 -9 -8 -25 1 -19 5 3 8 -16 7 -42 -1 -28 -1 -33 2
-12 3 19 9 40 14 46 10 13 -13 39 -24 27z"/>
<path d="M8560 5531 c0 -22 4 -31 13 -28 13 4 11 36 -4 52 -5 5 -9 -4 -9 -24z"/>
<path d="M5957 4693 c-30 -30 27 -88 74 -76 27 7 49 26 49 42 0 28 -101 57
-123 34z"/>
<path d="M8292 4660 c-1 -8 4 -25 12 -38 l12 -23 25 20 24 20 -32 1 c-21 0
-33 6 -36 18 -3 12 -5 12 -5 2z"/>
<path d="M5825 3943 c-22 -2 -60 -13 -84 -24 -31 -14 -54 -19 -77 -14 -19 3
-42 2 -51 -3 -10 -5 -83 -13 -163 -16 -80 -4 -163 -9 -185 -10 -26 -2 -63 -17
-108 -44 -37 -23 -75 -42 -85 -42 -10 0 -27 -8 -38 -18 -10 -10 -46 -25 -79
-34 -61 -16 -132 -42 -195 -71 -31 -14 -74 -24 -193 -42 -46 -7 -63 -32 -70
-103 -8 -72 2 -93 98 -204 8 -10 15 -24 15 -32 0 -8 7 -16 15 -20 8 -3 15 -11
15 -18 1 -15 75 -73 108 -83 12 -3 37 -20 54 -36 18 -16 38 -29 45 -29 7 0 13
-8 13 -18 0 -25 36 -44 78 -41 44 3 102 -9 102 -21 0 -14 69 -33 83 -22 17 14
87 20 120 11 34 -10 60 -1 53 17 -3 8 1 14 8 14 8 0 16 -9 19 -21 3 -12 10
-18 17 -14 6 4 9 13 6 21 -3 8 1 14 9 14 14 0 19 12 29 71 4 21 12 41 19 47
22 18 71 23 125 12 52 -10 56 -9 115 27 48 28 79 38 137 45 133 16 220 20 220
10 0 -5 12 -13 28 -17 37 -10 212 -15 212 -6 0 10 72 13 79 4 8 -10 131 -53
153 -53 10 0 35 -9 57 -20 21 -12 59 -22 82 -24 60 -4 76 -13 83 -44 11 -50
113 -97 146 -67 12 10 26 14 39 10 13 -4 27 1 41 15 12 12 28 19 35 16 7 -2
20 3 29 13 11 12 38 21 77 25 33 4 57 11 54 17 -4 5 0 9 8 9 8 0 22 11 31 25
9 14 23 25 32 25 24 0 98 37 118 59 11 12 25 21 32 21 7 0 17 6 21 13 4 6 25
20 45 31 39 19 68 66 68 108 0 13 6 33 14 44 16 22 15 82 -3 136 -9 27 -21 39
-52 51 -37 15 -43 15 -56 1 -12 -11 -26 -14 -57 -9 -22 4 -45 11 -51 16 -5 5
-16 9 -25 9 -9 0 -21 5 -28 12 -6 6 -24 13 -39 14 -15 2 -37 8 -48 13 -11 6
-45 17 -76 24 l-55 14 4 -28 c2 -16 1 -45 -2 -65 -6 -30 -14 -39 -53 -56 -65
-29 -179 -21 -255 17 -29 15 -73 29 -98 31 -25 3 -69 10 -98 15 -30 6 -75 10
-100 8 -26 -1 -71 1 -99 6 -42 6 -53 11 -53 26 0 12 -7 19 -20 19 -26 0 -26
16 0 32 13 8 18 19 14 34 -6 24 26 54 58 54 10 0 18 5 18 10 0 6 7 10 15 10 8
0 15 4 15 9 0 21 73 42 146 42 41 0 74 4 74 9 0 12 20 10 -155 16 -82 3 -166
9 -185 14 -21 6 -60 6 -99 0 -38 -5 -95 -5 -145 1 -44 5 -88 8 -96 7 -8 -1
-33 -3 -55 -5z m-127 -212 c16 -2 16 -3 -1 -10 -10 -3 15 -7 55 -8 40 0 94 -7
121 -14 41 -12 47 -17 47 -40 0 -38 -28 -58 -110 -75 -68 -14 -110 -12 -110 5
0 4 -18 7 -39 7 -27 -1 -46 -8 -59 -22 -16 -17 -33 -21 -91 -22 -55 -1 -71 2
-71 13 0 7 -12 15 -27 17 -26 3 -27 5 -25 50 3 44 2 47 -25 50 l-28 4 29 9
c20 5 31 4 34 -3 2 -8 11 -8 28 -1 14 5 45 9 68 9 27 0 51 7 63 18 19 16 70
20 141 13z m-418 -92 c0 -11 -7 -19 -17 -19 -10 0 -29 -3 -42 -7 -17 -4 -22
-2 -19 8 2 7 19 17 37 21 19 6 29 13 25 20 -4 7 -3 8 4 4 7 -4 12 -16 12 -27z
m30 16 c0 -8 -4 -15 -10 -15 -5 0 -10 7 -10 15 0 8 5 15 10 15 6 0 10 -7 10
-15z"/>
</g>
</svg>
