{
  "accessors": [
    {
      "bufferView": 2,
      "componentType": 5126,
      "count": 220,
      "max": [
        983.8485107421875,
        52.706573486328125,
        2178.521728515625
      ],
      "min": [
        2.861095691961135e-13,
        -52.706573486328125,
        8.784361839294434
      ],
      "type": "VEC3"
    },
    {
      "bufferView": 2,
      "byteOffset": 2640,
      "componentType": 5126,
      "count": 220,
      "max": [
        1.0,
        1.0,
        1.0
      ],
      "min": [
        -1.0,
        -1.0,
        -1.0
      ],
      "type": "VEC3"
    },
    {
      "bufferView": 3,
      "componentType": 5126,
      "count": 220,
      "max": [
        1.0,
        0.8169558048248291,
        1.0,
        1.0
      ],
      "min": [
        -1.0,
        -0.8169561624526978,
        -1.0,
        -1.0
      ],
      "type": "VEC4"
    },
    {
      "bufferView": 1,
      "componentType": 5126,
      "count": 220,
      "max": [
        0.9972778558731079,
        0.9988744258880615
      ],
      "min": [
        0.001125553622841835,
        0.0011255741119384766
      ],
      "type": "VEC2"
    },
    {
      "bufferView": 0,
      "componentType": 5125,
      "count": 444,
      "type": "SCALAR"
    },
    {
      "bufferView": 2,
      "byteOffset": 5280,
      "componentType": 5126,
      "count": 8,
      "max": [
        863.9808349609375,
        -5.415640592226767e-12,
        2077.173095703125
      ],
      "min": [
        119.8676528930664,
        -5.415640592226767e-12,
        1000.8671875
      ],
      "type": "VEC3"
    },
    {
      "bufferView": 2,
      "byteOffset": 5376,
      "componentType": 5126,
      "count": 8,
      "max": [
        1.8068712621503266e-22,
        1.0,
        -0.0
      ],
      "min": [
        -1.8068712621503266e-22,
        -1.0,
        -0.0
      ],
      "type": "VEC3"
    },
    {
      "bufferView": 1,
      "byteOffset": 1760,
      "componentType": 5126,
      "count": 8,
      "max": [
        0.9958190321922302,
        0.9958190321922302
      ],
      "min": [
        0.004180987365543842,
        0.2847001552581787
      ],
      "type": "VEC2"
    },
    {
      "bufferView": 0,
      "byteOffset": 1776,
      "componentType": 5125,
      "count": 12,
      "type": "SCALAR"
    },
    {
      "bufferView": 2,
      "byteOffset": 5472,
      "componentType": 5126,
      "count": 60,
      "max": [
        2272.111083984375,
        179.9037322998047,
        1113.155517578125
      ],
      "min": [
        1152.2103271484375,
        -179.9037322998047,
        -1173.8707275390625
      ],
      "type": "VEC3"
    },
    {
      "bufferView": 2,
      "byteOffset": 6192,
      "componentType": 5126,
      "count": 60,
      "max": [
        1.0,
        1.0,
        0.9999997615814209
      ],
      "min": [
        -1.0,
        -1.0,
        -1.0
      ],
      "type": "VEC3"
    },
    {
      "bufferView": 3,
      "byteOffset": 3520,
      "componentType": 5126,
      "count": 60,
      "max": [
        0.0,
        0.0,
        1.0,
        1.0
      ],
      "min": [
        -1.0,
        0.0,
        0.0,
        1.0
      ],
      "type": "VEC4"
    },
    {
      "bufferView": 1,
      "byteOffset": 1824,
      "componentType": 5126,
      "count": 60,
      "max": [
        0.8878486156463623,
        0.8480464220046997
      ],
      "min": [
        0.17368200421333313,
        0.02799701690673828
      ],
      "type": "VEC2"
    },
    {
      "bufferView": 0,
      "byteOffset": 1824,
      "componentType": 5125,
      "count": 90,
      "type": "SCALAR"
    },
    {
      "bufferView": 2,
      "byteOffset": 6912,
      "componentType": 5126,
      "count": 1365,
      "max": [
        961.8145141601563,
        1079.8873291015625,
        126.99174499511719
      ],
      "min": [
        922.3513793945313,
        737.2030029296875,
        -126.99174499511719
      ],
      "type": "VEC3"
    },
    {
      "bufferView": 2,
      "byteOffset": 23292,
      "componentType": 5126,
      "count": 1365,
      "max": [
        1.0,
        1.0,
        0.9999964237213135
      ],
      "min": [
        -1.0,
        -1.0,
        -0.9999964237213135
      ],
      "type": "VEC3"
    },
    {
      "bufferView": 3,
      "byteOffset": 4480,
      "componentType": 5126,
      "count": 1365,
      "max": [
        1.0,
        1.0,
        1.0,
        1.0
      ],
      "min": [
        -1.0,
        -1.0,
        -0.9999732971191406,
        1.0
      ],
      "type": "VEC4"
    },
    {
      "bufferView": 1,
      "byteOffset": 2304,
      "componentType": 5126,
      "count": 1365,
      "max": [
        0.855896532535553,
        0.4770195484161377
      ],
      "min": [
        0.13702595233917236,
        0.1354125738143921
      ],
      "type": "VEC2"
    },
    {
      "bufferView": 0,
      "byteOffset": 2184,
      "componentType": 5125,
      "count": 5904,
      "type": "SCALAR"
    },
    {
      "bufferView": 2,
      "byteOffset": 39672,
      "componentType": 5126,
      "count": 220,
      "max": [
        983.8485107421875,
        52.706573486328125,
        2178.521728515625
      ],
      "min": [
        2.861095691961135e-13,
        -52.706573486328125,
        8.784361839294434
      ],
      "type": "VEC3"
    },
    {
      "bufferView": 2,
      "byteOffset": 42312,
      "componentType": 5126,
      "count": 220,
      "max": [
        1.0,
        1.0,
        1.0
      ],
      "min": [
        -1.0,
        -1.0,
        -1.0
      ],
      "type": "VEC3"
    },
    {
      "bufferView": 3,
      "byteOffset": 26320,
      "componentType": 5126,
      "count": 220,
      "max": [
        1.0,
        0.8169558048248291,
        1.0,
        1.0
      ],
      "min": [
        -1.0,
        -0.8169561624526978,
        -1.0,
        -1.0
      ],
      "type": "VEC4"
    },
    {
      "bufferView": 1,
      "byteOffset": 13224,
      "componentType": 5126,
      "count": 220,
      "max": [
        0.9972778558731079,
        0.9988744258880615
      ],
      "min": [
        0.001125553622841835,
        0.0011255741119384766
      ],
      "type": "VEC2"
    },
    {
      "bufferView": 0,
      "byteOffset": 25800,
      "componentType": 5125,
      "count": 444,
      "type": "SCALAR"
    },
    {
      "bufferView": 2,
      "byteOffset": 44952,
      "componentType": 5126,
      "count": 1365,
      "max": [
        961.8145141601563,
        1079.8873291015625,
        126.99174499511719
      ],
      "min": [
        922.3513793945313,
        737.2030029296875,
        -126.99174499511719
      ],
      "type": "VEC3"
    },
    {
      "bufferView": 2,
      "byteOffset": 61332,
      "componentType": 5126,
      "count": 1365,
      "max": [
        1.0,
        1.0,
        0.9999964237213135
      ],
      "min": [
        -1.0,
        -1.0,
        -0.9999964237213135
      ],
      "type": "VEC3"
    },
    {
      "bufferView": 3,
      "byteOffset": 29840,
      "componentType": 5126,
      "count": 1365,
      "max": [
        1.0,
        1.0,
        1.0,
        1.0
      ],
      "min": [
        -1.0,
        -1.0,
        -0.9999732971191406,
        1.0
      ],
      "type": "VEC4"
    },
    {
      "bufferView": 1,
      "byteOffset": 14984,
      "componentType": 5126,
      "count": 1365,
      "max": [
        0.855896532535553,
        0.4770195484161377
      ],
      "min": [
        0.13702595233917236,
        0.1354125738143921
      ],
      "type": "VEC2"
    },
    {
      "bufferView": 0,
      "byteOffset": 27576,
      "componentType": 5125,
      "count": 5904,
      "type": "SCALAR"
    },
    {
      "bufferView": 2,
      "byteOffset": 77712,
      "componentType": 5126,
      "count": 8,
      "max": [
        863.9808349609375,
        -5.415640592226767e-12,
        2077.173095703125
      ],
      "min": [
        119.8676528930664,
        -5.415640592226767e-12,
        1000.8671875
      ],
      "type": "VEC3"
    },
    {
      "bufferView": 2,
      "byteOffset": 77808,
      "componentType": 5126,
      "count": 8,
      "max": [
        1.8068712621503266e-22,
        1.0,
        -0.0
      ],
      "min": [
        -1.8068712621503266e-22,
        -1.0,
        -0.0
      ],
      "type": "VEC3"
    },
    {
      "bufferView": 1,
      "byteOffset": 25904,
      "componentType": 5126,
      "count": 8,
      "max": [
        0.9958190321922302,
        0.9958190321922302
      ],
      "min": [
        0.004180987365543842,
        0.2847001552581787
      ],
      "type": "VEC2"
    },
    {
      "bufferView": 0,
      "byteOffset": 51192,
      "componentType": 5125,
      "count": 12,
      "type": "SCALAR"
    },
    {
      "bufferView": 2,
      "byteOffset": 77904,
      "componentType": 5126,
      "count": 60,
      "max": [
        2272.111083984375,
        179.9037322998047,
        1113.155517578125
      ],
      "min": [
        1152.2103271484375,
        -179.9037322998047,
        -1173.8707275390625
      ],
      "type": "VEC3"
    },
    {
      "bufferView": 2,
      "byteOffset": 78624,
      "componentType": 5126,
      "count": 60,
      "max": [
        1.0,
        1.0,
        0.9999997615814209
      ],
      "min": [
        -1.0,
        -1.0,
        -1.0
      ],
      "type": "VEC3"
    },
    {
      "bufferView": 3,
      "byteOffset": 51680,
      "componentType": 5126,
      "count": 60,
      "max": [
        0.0,
        0.0,
        1.0,
        1.0
      ],
      "min": [
        -1.0,
        0.0,
        0.0,
        1.0
      ],
      "type": "VEC4"
    },
    {
      "bufferView": 1,
      "byteOffset": 25968,
      "componentType": 5126,
      "count": 60,
      "max": [
        0.8878486156463623,
        0.8480464220046997
      ],
      "min": [
        0.17368200421333313,
        0.02799701690673828
      ],
      "type": "VEC2"
    },
    {
      "bufferView": 0,
      "byteOffset": 51240,
      "componentType": 5125,
      "count": 90,
      "type": "SCALAR"
    }
  ],
  "asset": {
    "extras": {
      "author": "Mehdi Shahsavan (https://sketchfab.com/ahmagh2e)",
      "license": "CC-BY-4.0 (http://creativecommons.org/licenses/by/4.0/)",
      "source": "https://sketchfab.com/3d-models/door-wooden-5mb-6a7e720d4a394dbbbce172eab86e1a50",
      "title": "Door wooden - 5MB"
    },
    "generator": "Sketchfab-16.15.0",
    "version": "2.0"
  },
  "bufferViews": [
    {
      "buffer": 0,
      "byteLength": 51600,
      "name": "floatBufferViews",
      "target": 34963
    },
    {
      "buffer": 0,
      "byteLength": 26448,
      "byteOffset": 51600,
      "byteStride": 8,
      "name": "floatBufferViews",
      "target": 34962
    },
    {
      "buffer": 0,
      "byteLength": 79344,
      "byteOffset": 78048,
      "byteStride": 12,
      "name": "floatBufferViews",
      "target": 34962
    },
    {
      "buffer": 0,
      "byteLength": 52640,
      "byteOffset": 157392,
      "byteStride": 16,
      "name": "floatBufferViews",
      "target": 34962
    }
  ],
  "buffers": [
    {
      "byteLength": 210032,
      "uri": "scene.bin"
    }
  ],
  "extensionsUsed": [
    "KHR_materials_transmission",
    "KHR_materials_specular"
  ],
  "images": [
    {
      "uri": "textures/door_baseColor.png"
    },
    {
      "uri": "textures/door_metallicRoughness.png"
    },
    {
      "uri": "textures/door_normal.png"
    },
    {
      "uri": "textures/glass_baseColor.png"
    },
    {
      "uri": "textures/glass_transmission.png"
    }
  ],
  "materials": [
    {
      "doubleSided": true,
      "name": "door",
      "normalTexture": {
        "index": 2
      },
      "pbrMetallicRoughness": {
        "baseColorTexture": {
          "index": 0
        },
        "metallicRoughnessTexture": {
          "index": 1
        }
      }
    },
    {
      "alphaMode": "BLEND",
      "doubleSided": true,
      "extensions": {
        "KHR_materials_specular": {
          "specularColorFactor": [
            1.0,
            1.0,
            1.0
          ],
          "specularFactor": 0.28495324938133143
        },
        "KHR_materials_transmission": {
          "transmissionFactor": 1.0,
          "transmissionTexture": {
            "index": 4
          }
        }
      },
      "name": "glass",
      "pbrMetallicRoughness": {
        "baseColorTexture": {
          "index": 3
        },
        "metallicFactor": 0.0,
        "roughnessFactor": 0.0
      }
    }
  ],
  "meshes": [
    {
      "name": "Door00_50m_0_1_door_0",
      "primitives": [
        {
          "attributes": {
            "NORMAL": 1,
            "POSITION": 0,
            "TANGENT": 2,
            "TEXCOORD_0": 3
          },
          "indices": 4,
          "material": 0,
          "mode": 4
        }
      ]
    },
    {
      "name": "glass_glass_0",
      "primitives": [
        {
          "attributes": {
            "NORMAL": 6,
            "POSITION": 5,
            "TEXCOORD_0": 7
          },
          "indices": 8,
          "material": 1,
          "mode": 4
        }
      ]
    },
    {
      "name": "Main_11m_0_1_door_0",
      "primitives": [
        {
          "attributes": {
            "NORMAL": 10,
            "POSITION": 9,
            "TANGENT": 11,
            "TEXCOORD_0": 12
          },
          "indices": 13,
          "material": 0,
          "mode": 4
        }
      ]
    },
    {
      "name": "Sweep_door_0",
      "primitives": [
        {
          "attributes": {
            "NORMAL": 15,
            "POSITION": 14,
            "TANGENT": 16,
            "TEXCOORD_0": 17
          },
          "indices": 18,
          "material": 0,
          "mode": 4
        }
      ]
    },
    {
      "name": "Door00_50m_0_1_2_door_0",
      "primitives": [
        {
          "attributes": {
            "NORMAL": 20,
            "POSITION": 19,
            "TANGENT": 21,
            "TEXCOORD_0": 22
          },
          "indices": 23,
          "material": 0,
          "mode": 4
        }
      ]
    },
    {
      "name": "Sweep_2_door_0",
      "primitives": [
        {
          "attributes": {
            "NORMAL": 25,
            "POSITION": 24,
            "TANGENT": 26,
            "TEXCOORD_0": 27
          },
          "indices": 28,
          "material": 0,
          "mode": 4
        }
      ]
    },
    {
      "name": "glass_2_glass_0",
      "primitives": [
        {
          "attributes": {
            "NORMAL": 30,
            "POSITION": 29,
            "TEXCOORD_0": 31
          },
          "indices": 32,
          "material": 1,
          "mode": 4
        }
      ]
    },
    {
      "name": "Main_11m_0_1_2_door_0",
      "primitives": [
        {
          "attributes": {
            "NORMAL": 34,
            "POSITION": 33,
            "TANGENT": 35,
            "TEXCOORD_0": 36
          },
          "indices": 37,
          "material": 0,
          "mode": 4
        }
      ]
    }
  ],
  "nodes": [
    {
      "children": [
        1
      ],
      "matrix": [
        1.0,
        0.0,
        0.0,
        0.0,
        0.0,
        2.220446049250313e-16,
        -1.0,
        0.0,
        0.0,
        1.0,
        2.220446049250313e-16,
        0.0,
        0.0,
        0.0,
        0.0,
        1.0
      ],
      "name": "Sketchfab_model"
    },
    {
      "children": [
        2
      ],
      "matrix": [
        0.009999999776482582,
        0.0,
        0.0,
        0.0,
        0.0,
        0.0,
        0.009999999776482582,
        0.0,
        0.0,
        -0.009999999776482582,
        0.0,
        0.0,
        0.0,
        0.0,
        0.0,
        1.0
      ],
      "name": "ae68f038fae24d1789bd9f8105673860.fbx"
    },
    {
      "children": [
        3,
        5,
        14
      ],
      "name": "RootNode"
    },
    {
      "children": [
        4
      ],
      "matrix": [
        -0.4581902588473672,
        -0.09013420265680384,
        0.8842723065938483,
        0.0,
        -0.041467401362781806,
        0.9959296287948372,
        0.08002892672525194,
        0.0,
        -0.887886333559426,
        2.42861286636753e-16,
        -0.46006288556935293,
        0.0,
        3388.494384765625,
        1477.9334716796875,
        -4116.25830078125,
        1.0
      ],
      "name": "CINEMA_4D_Editor"
    },
    {
      "name": "Object_4"
    },
    {
      "children": [
        6,
        10,
        12
      ],
      "matrix": [
        1.0,
        0.0,
        0.0,
        0.0,
        0.0,
        1.0,
        0.0,
        0.0,
        0.0,
        0.0,
        1.0,
        0.0,
        -303.9179382324219,
        282.0291748046875,
        -9.435902695532073e-17,
        1.0
      ],
      "name": "01"
    },
    {
      "children": [
        7,
        8
      ],
      "matrix": [
        1.0,
        0.0,
        0.0,
        0.0,
        0.0,
        2.220446049250313e-16,
        -1.0,
        0.0,
        0.0,
        1.0,
        2.220446049250313e-16,
        0.0,
        303.9179382324219,
        -282.0291748046875,
        9.435902695532073e-17,
        1.0
      ],
      "name": "Door00_50m_0_1"
    },
    {
      "mesh": 0,
      "name": "Door00_50m_0_1_door_0"
    },
    {
      "children": [
        9
      ],
      "name": "glass"
    },
    {
      "mesh": 1,
      "name": "glass_glass_0"
    },
    {
      "children": [
        11
      ],
      "matrix": [
        1.0,
        0.0,
        0.0,
        0.0,
        0.0,
        2.220446049250313e-16,
        -1.0,
        0.0,
        0.0,
        1.0,
        2.220446049250313e-16,
        0.0,
        -911.7538452148438,
        846.0875244140625,
        -2.830770874834071e-16,
        1.0
      ],
      "name": "Main_11m_0_1"
    },
    {
      "mesh": 2,
      "name": "Main_11m_0_1_door_0"
    },
    {
      "children": [
        13
      ],
      "matrix": [
        1.0,
        0.0,
        0.0,
        0.0,
        0.0,
        1.0,
        0.0,
        0.0,
        0.0,
        0.0,
        1.0,
        0.0,
        303.9179382324219,
        -282.0291748046875,
        9.435902695532073e-17,
        1.0
      ],
      "name": "Sweep"
    },
    {
      "mesh": 3,
      "name": "Sweep_door_0"
    },
    {
      "children": [
        15,
        21
      ],
      "matrix": [
        1.0,
        0.0,
        0.0,
        0.0,
        0.0,
        1.0,
        0.0,
        0.0,
        0.0,
        0.0,
        1.0,
        0.0,
        1486.0504150390625,
        282.0291748046875,
        -9.435902695532073e-17,
        1.0
      ],
      "name": "01_1"
    },
    {
      "children": [
        16,
        17,
        19
      ],
      "matrix": [
        0.4785860682732981,
        -2.220446049250313e-16,
        0.8780406455595926,
        0.0,
        0.8780406455595926,
        0.0,
        -0.478586068273298,
        0.0,
        5.551115123125783e-17,
        1.0,
        2.220446049250313e-16,
        0.0,
        303.9179382324219,
        -282.0291748046875,
        9.435902695532073e-17,
        1.0
      ],
      "name": "Door00_50m_0_1_2"
    },
    {
      "mesh": 4,
      "name": "Door00_50m_0_1_2_door_0"
    },
    {
      "children": [
        18
      ],
      "matrix": [
        1.0,
        1.6653345369377348e-16,
        1.1276897038848187e-16,
        0.0,
        -1.127689703884819e-16,
        2.220446049250313e-16,
        1.0,
        0.0,
        1.6653345369377346e-16,
        -1.0,
        2.220446049250313e-16,
        0.0,
        0.0,
        0.0,
        0.0,
        1.0
      ],
      "name": "Sweep_2"
    },
    {
      "mesh": 5,
      "name": "Sweep_2_door_0"
    },
    {
      "children": [
        20
      ],
      "name": "glass_2"
    },
    {
      "mesh": 6,
      "name": "glass_2_glass_0"
    },
    {
      "children": [
        22
      ],
      "matrix": [
        1.0,
        0.0,
        0.0,
        0.0,
        0.0,
        2.220446049250313e-16,
        -1.0,
        0.0,
        0.0,
        1.0,
        2.220446049250313e-16,
        0.0,
        -911.7538452148438,
        846.0875244140625,
        -2.830770874834071e-16,
        1.0
      ],
      "name": "Main_11m_0_1_2"
    },
    {
      "mesh": 7,
      "name": "Main_11m_0_1_2_door_0"
    }
  ],
  "samplers": [
    {
      "magFilter": 9729,
      "minFilter": 9987,
      "wrapS": 10497,
      "wrapT": 10497
    }
  ],
  "scene": 0,
  "scenes": [
    {
      "name": "Sketchfab_Scene",
      "nodes": [
        0
      ]
    }
  ],
  "textures": [
    {
      "sampler": 0,
      "source": 0
    },
    {
      "sampler": 0,
      "source": 1
    },
    {
      "sampler": 0,
      "source": 2
    },
    {
      "sampler": 0,
      "source": 3
    },
    {
      "sampler": 0,
      "source": 4
    }
  ]
}
