{
  "accessors": [
    {
      "bufferView": 2,
      "componentType": 5126,
      "count": 3010,
      "max": [
        1.837576985359192,
        1.8825559616088867,
        1.7602258920669556
      ],
      "min": [
        -1.837576985359192,
        -0.9999998211860657,
        -1.0847725868225098
      ],
      "type": "VEC3"
    },
    {
      "bufferView": 2,
      "byteOffset": 36120,
      "componentType": 5126,
      "count": 3010,
      "max": [
        1.0,
        1.0,
        1.0
      ],
      "min": [
        -1.0,
        -1.0,
        -1.0
      ],
      "type": "VEC3"
    },
    {
      "bufferView": 1,
      "componentType": 5126,
      "count": 3010,
      "max": [
        0.0,
        0.0
      ],
      "min": [
        0.0,
        0.0
      ],
      "type": "VEC2"
    },
    {
      "bufferView": 0,
      "componentType": 5125,
      "count": 17964,
      "type": "SCALAR"
    },
    {
      "bufferView": 2,
      "byteOffset": 72240,
      "componentType": 5126,
      "count": 1861,
      "max": [
        0.5204834938049316,
        -0.17434793710708618,
        2.6199393272399902
      ],
      "min": [
        -0.5204421281814575,
        -1.3019661903381348,
        1.2035363912582397
      ],
      "type": "VEC3"
    },
    {
      "bufferView": 2,
      "byteOffset": 94572,
      "componentType": 5126,
      "count": 1861,
      "max": [
        0.9995980262756348,
        0.9978737235069275,
        0.9969322681427002
      ],
      "min": [
        -0.9995969533920288,
        -0.9999574422836304,
        -0.999875545501709
      ],
      "type": "VEC3"
    },
    {
      "bufferView": 1,
      "byteOffset": 24080,
      "componentType": 5126,
      "count": 1861,
      "max": [
        0.963433027267456,
        0.9779360294342041
      ],
      "min": [
        0.03675450012087822,
        0.020416399464011192
      ],
      "type": "VEC2"
    },
    {
      "bufferView": 1,
      "byteOffset": 38968,
      "componentType": 5126,
      "count": 1861,
      "max": [
        0.963433027267456,
        0.9779360294342041
      ],
      "min": [
        0.03675450012087822,
        0.020416399464011192
      ],
      "type": "VEC2"
    },
    {
      "bufferView": 0,
      "byteOffset": 71856,
      "componentType": 5125,
      "count": 10992,
      "type": "SCALAR"
    },
    {
      "bufferView": 2,
      "byteOffset": 116904,
      "componentType": 5126,
      "count": 8760,
      "max": [
        0.9426179528236389,
        0.0524577759206295,
        2.830076217651367
      ],
      "min": [
        -0.9727813601493835,
        -1.138667345046997,
        0.8413214683532715
      ],
      "type": "VEC3"
    },
    {
      "bufferView": 2,
      "byteOffset": 222024,
      "componentType": 5126,
      "count": 8760,
      "max": [
        0.9548082947731018,
        0.9810322523117065,
        0.9981129765510559
      ],
      "min": [
        -0.9730138182640076,
        -0.9955230951309204,
        -0.5180176496505737
      ],
      "type": "VEC3"
    },
    {
      "bufferView": 1,
      "byteOffset": 53856,
      "componentType": 5126,
      "count": 8760,
      "max": [
        0.0,
        0.0
      ],
      "min": [
        0.0,
        0.0
      ],
      "type": "VEC2"
    },
    {
      "bufferView": 0,
      "byteOffset": 115824,
      "componentType": 5125,
      "count": 31536,
      "type": "SCALAR"
    }
  ],
  "asset": {
    "extras": {
      "author": "Sba Stuff (https://sketchfab.com/sbastuff)",
      "license": "CC-BY-4.0 (http://creativecommons.org/licenses/by/4.0/)",
      "source": "https://sketchfab.com/3d-models/momo-3d-27483b2230494fa9a055a2977c887ab4",
      "title": "Momo 3D"
    },
    "generator": "Sketchfab-12.68.0",
    "version": "2.0"
  },
  "bufferViews": [
    {
      "buffer": 0,
      "byteLength": 241968,
      "name": "floatBufferViews",
      "target": 34963
    },
    {
      "buffer": 0,
      "byteLength": 123936,
      "byteOffset": 241968,
      "byteStride": 8,
      "name": "floatBufferViews",
      "target": 34962
    },
    {
      "buffer": 0,
      "byteLength": 327144,
      "byteOffset": 365904,
      "byteStride": 12,
      "name": "floatBufferViews",
      "target": 34962
    }
  ],
  "buffers": [
    {
      "byteLength": 693048,
      "uri": "scene.bin"
    }
  ],
  "images": [
    {
      "uri": "textures/Body_baseColor.jpeg"
    },
    {
      "uri": "textures/head_baseColor.jpeg"
    }
  ],
  "materials": [
    {
      "doubleSided": true,
      "name": "Body",
      "pbrMetallicRoughness": {
        "baseColorTexture": {
          "index": 0
        },
        "metallicFactor": 0.0,
        "roughnessFactor": 0.8221720589961077
      }
    },
    {
      "doubleSided": true,
      "emissiveFactor": [
        1.0,
        1.0,
        1.0
      ],
      "emissiveTexture": {
        "index": 1
      },
      "name": "head",
      "pbrMetallicRoughness": {
        "baseColorTexture": {
          "index": 1
        },
        "metallicFactor": 0.0
      }
    },
    {
      "doubleSided": true,
      "name": "Material.001",
      "pbrMetallicRoughness": {
        "baseColorFactor": [
          0.0,
          0.0,
          0.0,
          1.0
        ],
        "metallicFactor": 0.0,
        "roughnessFactor": 0.9137371147849204
      }
    }
  ],
  "meshes": [
    {
      "name": "Body_Body_0",
      "primitives": [
        {
          "attributes": {
            "NORMAL": 1,
            "POSITION": 0,
            "TEXCOORD_0": 2
          },
          "indices": 3,
          "material": 0,
          "mode": 4
        }
      ]
    },
    {
      "name": "Body_head_0",
      "primitives": [
        {
          "attributes": {
            "NORMAL": 5,
            "POSITION": 4,
            "TEXCOORD_0": 6,
            "TEXCOORD_1": 7
          },
          "indices": 8,
          "material": 1,
          "mode": 4
        }
      ]
    },
    {
      "name": "Body_Material.001_0",
      "primitives": [
        {
          "attributes": {
            "NORMAL": 10,
            "POSITION": 9,
            "TEXCOORD_0": 11
          },
          "indices": 12,
          "material": 2,
          "mode": 4
        }
      ]
    }
  ],
  "nodes": [
    {
      "children": [
        1
      ],
      "matrix": [
        1.0,
        0.0,
        0.0,
        0.0,
        0.0,
        2.220446049250313e-16,
        -1.0,
        0.0,
        0.0,
        1.0,
        2.220446049250313e-16,
        0.0,
        0.0,
        0.0,
        0.0,
        1.0
      ],
      "name": "Sketchfab_model"
    },
    {
      "children": [
        2
      ],
      "matrix": [
        1.0,
        0.0,
        0.0,
        0.0,
        0.0,
        0.0,
        1.0,
        0.0,
        0.0,
        -1.0,
        0.0,
        0.0,
        0.0,
        0.0,
        0.0,
        1.0
      ],
      "name": "5aab3c6f52904544bd0faac37dfd14e1.fbx"
    },
    {
      "children": [
        3
      ],
      "name": "RootNode"
    },
    {
      "children": [
        4,
        5,
        6
      ],
      "matrix": [
        100.0,
        0.0,
        0.0,
        0.0,
        0.0,
        -1.192092831114877e-05,
        -99.9999999999993,
        0.0,
        0.0,
        99.9999999999993,
        -1.192092831114877e-05,
        0.0,
        0.0,
        112.64873504638672,
        0.0,
        1.0
      ],
      "name": "Body"
    },
    {
      "mesh": 0,
      "name": "Body_Body_0"
    },
    {
      "mesh": 1,
      "name": "Body_head_0"
    },
    {
      "mesh": 2,
      "name": "Body_Material.001_0"
    }
  ],
  "samplers": [
    {
      "magFilter": 9729,
      "minFilter": 9987,
      "wrapS": 10497,
      "wrapT": 10497
    }
  ],
  "scene": 0,
  "scenes": [
    {
      "name": "Sketchfab_Scene",
      "nodes": [
        0
      ]
    }
  ],
  "textures": [
    {
      "sampler": 0,
      "source": 0
    },
    {
      "sampler": 0,
      "source": 1
    }
  ]
}
