{
  "accessors": [
    {
      "bufferView": 2,
      "componentType": 5126,
      "count": 1762,
      "max": [
        0.8502963185310364,
        0.42030996084213257,
        0.7608699798583984
      ],
      "min": [
        -0.6588296294212341,
        -0.6387758851051331,
        0.0
      ],
      "type": "VEC3"
    },
    {
      "bufferView": 2,
      "byteOffset": 21144,
      "componentType": 5126,
      "count": 1762,
      "max": [
        1.0,
        1.0,
        1.0
      ],
      "min": [
        -1.0,
        -1.0,
        -1.0
      ],
      "type": "VEC3"
    },
    {
      "bufferView": 3,
      "componentType": 5126,
      "count": 1762,
      "max": [
        1.0,
        1.0,
        1.0,
        1.0
      ],
      "min": [
        -1.0,
        -1.0,
        -1.0,
        -1.0
      ],
      "type": "VEC4"
    },
    {
      "bufferView": 1,
      "componentType": 5126,
      "count": 1762,
      "max": [
        0.9755470752716064,
        0.9757992625236511
      ],
      "min": [
        0.002628495916724205,
        0.002628495916724205
      ],
      "type": "VEC2"
    },
    {
      "bufferView": 0,
      "componentType": 5125,
      "count": 6816,
      "type": "SCALAR"
    },
    {
      "bufferView": 2,
      "byteOffset": 42288,
      "componentType": 5126,
      "count": 366,
      "max": [
        0.2290993332862854,
        0.4331221282482147,
        0.08380115032196045
      ],
      "min": [
        -0.23042675852775574,
        -0.022703051567077637,
        -0.06839606165885925
      ],
      "type": "VEC3"
    },
    {
      "bufferView": 2,
      "byteOffset": 46680,
      "componentType": 5126,
      "count": 366,
      "max": [
        1.0,
        1.0,
        1.0
      ],
      "min": [
        -1.0,
        -1.0,
        -1.0
      ],
      "type": "VEC3"
    },
    {
      "bufferView": 3,
      "byteOffset": 28192,
      "componentType": 5126,
      "count": 366,
      "max": [
        1.0,
        1.0,
        1.0,
        1.0
      ],
      "min": [
        -1.0,
        -1.0,
        -0.9999904632568359,
        1.0
      ],
      "type": "VEC4"
    },
    {
      "bufferView": 1,
      "byteOffset": 14096,
      "componentType": 5126,
      "count": 366,
      "max": [
        0.9901502728462219,
        0.9964873790740967
      ],
      "min": [
        0.002628495916724205,
        0.06826088577508926
      ],
      "type": "VEC2"
    },
    {
      "bufferView": 0,
      "byteOffset": 27264,
      "componentType": 5125,
      "count": 1128,
      "type": "SCALAR"
    },
    {
      "bufferView": 2,
      "byteOffset": 51072,
      "componentType": 5126,
      "count": 366,
      "max": [
        0.2290993332862854,
        0.4331221282482147,
        0.08380097150802612
      ],
      "min": [
        -0.23042675852775574,
        -0.022703051567077637,
        -0.06839624047279358
      ],
      "type": "VEC3"
    },
    {
      "bufferView": 2,
      "byteOffset": 55464,
      "componentType": 5126,
      "count": 366,
      "max": [
        1.0,
        1.0,
        1.0
      ],
      "min": [
        -1.0,
        -1.0,
        -1.0
      ],
      "type": "VEC3"
    },
    {
      "bufferView": 3,
      "byteOffset": 34048,
      "componentType": 5126,
      "count": 366,
      "max": [
        1.0,
        1.0,
        0.9896708130836487,
        1.0
      ],
      "min": [
        -1.0,
        -1.0,
        -1.0,
        1.0
      ],
      "type": "VEC4"
    },
    {
      "bufferView": 1,
      "byteOffset": 17024,
      "componentType": 5126,
      "count": 366,
      "max": [
        0.9914836883544922,
        0.9954732060432434
      ],
      "min": [
        0.002628495916724205,
        0.002628495916724205
      ],
      "type": "VEC2"
    },
    {
      "bufferView": 0,
      "byteOffset": 31776,
      "componentType": 5125,
      "count": 1128,
      "type": "SCALAR"
    },
    {
      "bufferView": 2,
      "byteOffset": 59856,
      "componentType": 5126,
      "count": 366,
      "max": [
        0.2290993332862854,
        0.4331221282482147,
        0.08380098640918732
      ],
      "min": [
        -0.23042675852775574,
        -0.022703051567077637,
        -0.06839622557163239
      ],
      "type": "VEC3"
    },
    {
      "bufferView": 2,
      "byteOffset": 64248,
      "componentType": 5126,
      "count": 366,
      "max": [
        1.0,
        1.0,
        1.0
      ],
      "min": [
        -1.0,
        -1.0,
        -1.0
      ],
      "type": "VEC3"
    },
    {
      "bufferView": 3,
      "byteOffset": 39904,
      "componentType": 5126,
      "count": 366,
      "max": [
        1.0,
        1.0,
        0.989683210849762,
        1.0
      ],
      "min": [
        -1.0,
        -1.0,
        -1.0,
        1.0
      ],
      "type": "VEC4"
    },
    {
      "bufferView": 1,
      "byteOffset": 19952,
      "componentType": 5126,
      "count": 366,
      "max": [
        0.9901503920555115,
        0.9973715543746948
      ],
      "min": [
        0.002628495916724205,
        0.06906269490718842
      ],
      "type": "VEC2"
    },
    {
      "bufferView": 0,
      "byteOffset": 36288,
      "componentType": 5125,
      "count": 1128,
      "type": "SCALAR"
    },
    {
      "bufferView": 2,
      "byteOffset": 68640,
      "componentType": 5126,
      "count": 294,
      "max": [
        0.23962365090847015,
        0.454264372587204,
        0.024523794651031494
      ],
      "min": [
        -0.4265771508216858,
        -0.15823933482170105,
        -0.02449953556060791
      ],
      "type": "VEC3"
    },
    {
      "bufferView": 2,
      "byteOffset": 72168,
      "componentType": 5126,
      "count": 294,
      "max": [
        0.9848917722702026,
        0.9999336004257202,
        1.0
      ],
      "min": [
        -0.9788547158241272,
        -0.999933660030365,
        -1.0
      ],
      "type": "VEC3"
    },
    {
      "bufferView": 3,
      "byteOffset": 45760,
      "componentType": 5126,
      "count": 294,
      "max": [
        0.996928870677948,
        0.8956937789916992,
        1.0,
        1.0
      ],
      "min": [
        -0.9786696434020996,
        -0.8782894611358643,
        -1.0,
        1.0
      ],
      "type": "VEC4"
    },
    {
      "bufferView": 1,
      "byteOffset": 22880,
      "componentType": 5126,
      "count": 294,
      "max": [
        0.9817795157432556,
        0.973034143447876
      ],
      "min": [
        0.002628495916724205,
        0.10363080352544785
      ],
      "type": "VEC2"
    },
    {
      "bufferView": 0,
      "byteOffset": 40800,
      "componentType": 5125,
      "count": 960,
      "type": "SCALAR"
    }
  ],
  "asset": {
    "extras": {
      "author": "AleixoAlonso (https://sketchfab.com/AleixoAlonso)",
      "license": "CC-BY-4.0 (http://creativecommons.org/licenses/by/4.0/)",
      "source": "https://sketchfab.com/3d-models/wooden-desk-26ccc202675d4eecaa5bbd730ebd99d1",
      "title": "Wooden Desk"
    },
    "generator": "Sketchfab-12.66.0",
    "version": "2.0"
  },
  "bufferViews": [
    {
      "buffer": 0,
      "byteLength": 44640,
      "name": "floatBufferViews",
      "target": 34963
    },
    {
      "buffer": 0,
      "byteLength": 25232,
      "byteOffset": 44640,
      "byteStride": 8,
      "name": "floatBufferViews",
      "target": 34962
    },
    {
      "buffer": 0,
      "byteLength": 75696,
      "byteOffset": 69872,
      "byteStride": 12,
      "name": "floatBufferViews",
      "target": 34962
    },
    {
      "buffer": 0,
      "byteLength": 50464,
      "byteOffset": 145568,
      "byteStride": 16,
      "name": "floatBufferViews",
      "target": 34962
    }
  ],
  "buffers": [
    {
      "byteLength": 196032,
      "uri": "scene.bin"
    }
  ],
  "images": [
    {
      "uri": "textures/TBL0001_Desk_baseColor.png"
    },
    {
      "uri": "textures/TBL0001_Desk_metallicRoughness.png"
    },
    {
      "uri": "textures/TBL0001_Desk_normal.png"
    }
  ],
  "materials": [
    {
      "doubleSided": true,
      "name": "TBL0001_Desk",
      "normalTexture": {
        "index": 2
      },
      "occlusionTexture": {
        "index": 1
      },
      "pbrMetallicRoughness": {
        "baseColorTexture": {
          "index": 0
        },
        "metallicRoughnessTexture": {
          "index": 1
        }
      }
    }
  ],
  "meshes": [
    {
      "name": "#TBL0001_Wooden_Desk_76x150x106_#TBL0001_Desk_0",
      "primitives": [
        {
          "attributes": {
            "NORMAL": 1,
            "POSITION": 0,
            "TANGENT": 2,
            "TEXCOORD_0": 3
          },
          "indices": 4,
          "material": 0,
          "mode": 4
        }
      ]
    },
    {
      "name": "#TBL0001_Drawer_Top_#TBL0001_Desk_0",
      "primitives": [
        {
          "attributes": {
            "NORMAL": 6,
            "POSITION": 5,
            "TANGENT": 7,
            "TEXCOORD_0": 8
          },
          "indices": 9,
          "material": 0,
          "mode": 4
        }
      ]
    },
    {
      "name": "#TBL0001_Drawer_Middle_#TBL0001_Desk_0",
      "primitives": [
        {
          "attributes": {
            "NORMAL": 11,
            "POSITION": 10,
            "TANGENT": 12,
            "TEXCOORD_0": 13
          },
          "indices": 14,
          "material": 0,
          "mode": 4
        }
      ]
    },
    {
      "name": "#TBL0001_Drawer_Bottom_#TBL0001_Desk_0",
      "primitives": [
        {
          "attributes": {
            "NORMAL": 16,
            "POSITION": 15,
            "TANGENT": 17,
            "TEXCOORD_0": 18
          },
          "indices": 19,
          "material": 0,
          "mode": 4
        }
      ]
    },
    {
      "name": "#TBL0001_Drawer_Keyboard_#TBL0001_Desk_0",
      "primitives": [
        {
          "attributes": {
            "NORMAL": 21,
            "POSITION": 20,
            "TANGENT": 22,
            "TEXCOORD_0": 23
          },
          "indices": 24,
          "material": 0,
          "mode": 4
        }
      ]
    }
  ],
  "nodes": [
    {
      "children": [
        1
      ],
      "matrix": [
        1.0,
        0.0,
        0.0,
        0.0,
        0.0,
        2.220446049250313e-16,
        -1.0,
        0.0,
        0.0,
        1.0,
        2.220446049250313e-16,
        0.0,
        0.0,
        0.0,
        0.0,
        1.0
      ],
      "name": "Sketchfab_model"
    },
    {
      "children": [
        2
      ],
      "matrix": [
        1.0,
        0.0,
        0.0,
        0.0,
        0.0,
        0.0,
        1.0,
        0.0,
        0.0,
        -1.0,
        0.0,
        0.0,
        0.0,
        0.0,
        0.0,
        1.0
      ],
      "name": "a98bb2d73b544ad09de885c30a689fc0.fbx"
    },
    {
      "children": [
        3
      ],
      "name": "RootNode"
    },
    {
      "children": [
        4,
        5,
        7,
        9,
        11
      ],
      "matrix": [
        1.0,
        0.0,
        0.0,
        0.0,
        0.0,
        -1.6292067939183141e-07,
        -0.9999999999999868,
        0.0,
        0.0,
        0.9999999999999868,
        -1.6292067939183141e-07,
        0.0,
        0.0,
        0.0,
        0.0,
        1.0
      ],
      "name": "#TBL0001_Wooden_Desk_76x150x106"
    },
    {
      "mesh": 0,
      "name": "#TBL0001_Wooden_Desk_76x150x106_#TBL0001_Desk_0"
    },
    {
      "children": [
        6
      ],
      "matrix": [
        1.0,
        0.0,
        0.0,
        0.0,
        0.0,
        1.0,
        -2.646977960169688e-23,
        0.0,
        0.0,
        2.646977960169688e-23,
        1.0,
        0.0,
        0.5636280179023743,
        -0.08512499928474426,
        0.5046069622039795,
        1.0
      ],
      "name": "#TBL0001_Drawer_Top"
    },
    {
      "mesh": 1,
      "name": "#TBL0001_Drawer_Top_#TBL0001_Desk_0"
    },
    {
      "children": [
        8
      ],
      "matrix": [
        1.0,
        0.0,
        0.0,
        0.0,
        0.0,
        1.0,
        -2.646977960169688e-23,
        0.0,
        0.0,
        2.646977960169688e-23,
        1.0,
        0.0,
        0.5636280179023743,
        -0.08512499928474426,
        0.3512684404850006,
        1.0
      ],
      "name": "#TBL0001_Drawer_Middle"
    },
    {
      "mesh": 2,
      "name": "#TBL0001_Drawer_Middle_#TBL0001_Desk_0"
    },
    {
      "children": [
        10
      ],
      "matrix": [
        1.0,
        0.0,
        0.0,
        0.0,
        0.0,
        1.0,
        -2.646977960169688e-23,
        0.0,
        0.0,
        2.646977960169688e-23,
        1.0,
        0.0,
        0.5636280179023743,
        -0.08512499928474426,
        0.1979297250509262,
        1.0
      ],
      "name": "#TBL0001_Drawer_Bottom"
    },
    {
      "mesh": 3,
      "name": "#TBL0001_Drawer_Bottom_#TBL0001_Desk_0"
    },
    {
      "children": [
        12
      ],
      "matrix": [
        1.0,
        0.0,
        0.0,
        0.0,
        0.0,
        1.0,
        -2.646977960169688e-23,
        0.0,
        0.0,
        2.646977960169688e-23,
        1.0,
        0.0,
        -0.022328000515699387,
        -0.34296199679374695,
        0.6554685235023499,
        1.0
      ],
      "name": "#TBL0001_Drawer_Keyboard"
    },
    {
      "mesh": 4,
      "name": "#TBL0001_Drawer_Keyboard_#TBL0001_Desk_0"
    }
  ],
  "samplers": [
    {
      "magFilter": 9729,
      "minFilter": 9987,
      "wrapS": 10497,
      "wrapT": 10497
    }
  ],
  "scene": 0,
  "scenes": [
    {
      "name": "Sketchfab_Scene",
      "nodes": [
        0
      ]
    }
  ],
  "textures": [
    {
      "sampler": 0,
      "source": 0
    },
    {
      "sampler": 0,
      "source": 1
    },
    {
      "sampler": 0,
      "source": 2
    }
  ]
}
