{
  "accessors": [
    {
      "bufferView": 2,
      "componentType": 5126,
      "count": 6856,
      "max": [
        11.722736358642578,
        11.95299243927002,
        24.03184700012207
      ],
      "min": [
        -11.4174222946167,
        -13.143424987792969,
        -3.787407875061035
      ],
      "type": "VEC3"
    },
    {
      "bufferView": 2,
      "byteOffset": 82272,
      "componentType": 5126,
      "count": 6856,
      "max": [
        1.0,
        1.0,
        1.0
      ],
      "min": [
        -1.0,
        -1.0,
        -1.0
      ],
      "type": "VEC3"
    },
    {
      "bufferView": 3,
      "componentType": 5126,
      "count": 6856,
      "max": [
        1.0,
        1.0,
        1.0,
        1.0
      ],
      "min": [
        -1.0,
        -1.0,
        -1.0,
        -1.0
      ],
      "type": "VEC4"
    },
    {
      "bufferView": 1,
      "componentType": 5126,
      "count": 6856,
      "max": [
        0.9868206977844238,
        0.9948322772979736
      ],
      "min": [
        0.0051676928997039795,
        0.010866820812225342
      ],
      "type": "VEC2"
    },
    {
      "bufferView": 1,
      "byteOffset": 54848,
      "componentType": 5126,
      "count": 6856,
      "max": [
        0.9868206977844238,
        0.9948322772979736
      ],
      "min": [
        0.0051676928997039795,
        0.010866820812225342
      ],
      "type": "VEC2"
    },
    {
      "bufferView": 0,
      "componentType": 5125,
      "count": 15246,
      "type": "SCALAR"
    }
  ],
  "asset": {
    "extras": {
      "author": "jin (https://sketchfab.com/madjin)",
      "license": "CC-BY-4.0 (http://creativecommons.org/licenses/by/4.0/)",
      "source": "https://sketchfab.com/3d-models/lowpoly-3d-printer-92837f03c84d470eb7e53b18f733ef86",
      "title": "Lowpoly 3d printer"
    },
    "generator": "Sketchfab-15.30.0",
    "version": "2.0"
  },
  "bufferViews": [
    {
      "buffer": 0,
      "byteLength": 60984,
      "name": "floatBufferViews",
      "target": 34963
    },
    {
      "buffer": 0,
      "byteLength": 109696,
      "byteOffset": 60984,
      "byteStride": 8,
      "name": "floatBufferViews",
      "target": 34962
    },
    {
      "buffer": 0,
      "byteLength": 164544,
      "byteOffset": 170680,
      "byteStride": 12,
      "name": "floatBufferViews",
      "target": 34962
    },
    {
      "buffer": 0,
      "byteLength": 109696,
      "byteOffset": 335224,
      "byteStride": 16,
      "name": "floatBufferViews",
      "target": 34962
    }
  ],
  "buffers": [
    {
      "byteLength": 444920,
      "uri": "scene.bin"
    }
  ],
  "images": [
    {
      "uri": "textures/SimplygonCastMaterial.003_baseColor.png"
    },
    {
      "uri": "textures/SimplygonCastMaterial.003_normal.jpeg"
    }
  ],
  "materials": [
    {
      "name": "SimplygonCastMaterial.003",
      "normalTexture": {
        "index": 1
      },
      "pbrMetallicRoughness": {
        "baseColorTexture": {
          "index": 0
        },
        "metallicFactor": 0.722222,
        "roughnessFactor": 0.293651
      }
    }
  ],
  "meshes": [
    {
      "name": "Object_0",
      "primitives": [
        {
          "attributes": {
            "NORMAL": 1,
            "POSITION": 0,
            "TANGENT": 2,
            "TEXCOORD_0": 3,
            "TEXCOORD_1": 4
          },
          "indices": 5,
          "material": 0,
          "mode": 4
        }
      ]
    }
  ],
  "nodes": [
    {
      "children": [
        1
      ],
      "matrix": [
        1.0,
        0.0,
        0.0,
        0.0,
        0.0,
        2.220446049250313e-16,
        -1.0,
        0.0,
        0.0,
        1.0,
        2.220446049250313e-16,
        0.0,
        0.0,
        0.0,
        0.0,
        1.0
      ],
      "name": "Sketchfab_model"
    },
    {
      "children": [
        2
      ],
      "name": "root"
    },
    {
      "children": [
        3
      ],
      "matrix": [
        1.0,
        0.0,
        0.0,
        0.0,
        0.0,
        2.220446049250313e-16,
        1.0,
        0.0,
        0.0,
        -1.0,
        2.220446049250313e-16,
        0.0,
        0.0,
        0.0,
        0.0,
        1.0
      ],
      "name": "GLTF_SceneRootNode"
    },
    {
      "children": [
        4
      ],
      "matrix": [
        0.0009914173691652607,
        -9.473024588201038e-10,
        -0.03524604366253644,
        0.0,
        -0.03524604366253569,
        -7.369853744980653e-09,
        -0.0009914173691650395,
        0.0,
        -7.340304286626186e-09,
        0.03525998443365018,
        -1.1541486868745968e-09,
        0.0,
        0.0,
        0.0,
        0.0,
        1.0
      ],
      "name": "3dprinter.002_0"
    },
    {
      "mesh": 0,
      "name": "Object_4"
    }
  ],
  "samplers": [
    {
      "magFilter": 9729,
      "minFilter": 9987,
      "wrapS": 10497,
      "wrapT": 10497
    }
  ],
  "scene": 0,
  "scenes": [
    {
      "name": "Sketchfab_Scene",
      "nodes": [
        0
      ]
    }
  ],
  "textures": [
    {
      "sampler": 0,
      "source": 0
    },
    {
      "sampler": 0,
      "source": 1
    }
  ]
}
