{
  "accessors": [
    {
      "bufferView": 2,
      "componentType": 5126,
      "count": 151,
      "max": [
        18.58839988708496,
        13.171099662780762,
        15.075799942016602
      ],
      "min": [
        -4.639999866485596,
        5.1203999519348145,
        9.149299621582031
      ],
      "type": "VEC3"
    },
    {
      "bufferView": 2,
      "byteOffset": 1812,
      "componentType": 5126,
      "count": 151,
      "max": [
        1.0,
        0.9997797608375549,
        1.0
      ],
      "min": [
        -1.0,
        -0.9997945427894592,
        -1.0
      ],
      "type": "VEC3"
    },
    {
      "bufferView": 3,
      "componentType": 5126,
      "count": 151,
      "max": [
        1.0,
        0.9994084239006042,
        1.0,
        1.0
      ],
      "min": [
        -1.0,
        -0.9998525977134705,
        -1.0,
        1.0
      ],
      "type": "VEC4"
    },
    {
      "bufferView": 1,
      "componentType": 5126,
      "count": 151,
      "max": [
        0.9994999766349792,
        0.9857000112533569
      ],
      "min": [
        0.0005000000237487257,
        0.0005000000237487257
      ],
      "type": "VEC2"
    },
    {
      "bufferView": 0,
      "componentType": 5125,
      "count": 276,
      "type": "SCALAR"
    }
  ],
  "asset": {
    "extras": {
      "author": "pamoan10 (https://sketchfab.com/pamoan10)",
      "license": "CC-BY-NC-4.0 (http://creativecommons.org/licenses/by-nc/4.0/)",
      "source": "https://sketchfab.com/3d-models/awning-63cba129018d42c98edb707b5e04a508",
      "title": "Awning"
    },
    "generator": "Sketchfab-12.68.0",
    "version": "2.0"
  },
  "bufferViews": [
    {
      "buffer": 0,
      "byteLength": 1104,
      "name": "floatBufferViews",
      "target": 34963
    },
    {
      "buffer": 0,
      "byteLength": 1208,
      "byteOffset": 1104,
      "byteStride": 8,
      "name": "floatBufferViews",
      "target": 34962
    },
    {
      "buffer": 0,
      "byteLength": 3624,
      "byteOffset": 2312,
      "byteStride": 12,
      "name": "floatBufferViews",
      "target": 34962
    },
    {
      "buffer": 0,
      "byteLength": 2416,
      "byteOffset": 5936,
      "byteStride": 16,
      "name": "floatBufferViews",
      "target": 34962
    }
  ],
  "buffers": [
    {
      "byteLength": 8352,
      "uri": "scene.bin"
    }
  ],
  "images": [
    {
      "uri": "textures/Esc_ToldoCutre_01_AG_Toldocutrre_default_baseColor.jpeg"
    },
    {
      "uri": "textures/Esc_ToldoCutre_01_AG_Toldocutrre_default_metallicRoughness.png"
    },
    {
      "uri": "textures/Esc_ToldoCutre_01_AG_Toldocutrre_default_normal.png"
    }
  ],
  "materials": [
    {
      "doubleSided": true,
      "name": "Esc_ToldoCutre_01_AG_Toldocutrre_default",
      "normalTexture": {
        "index": 2
      },
      "pbrMetallicRoughness": {
        "baseColorTexture": {
          "index": 0
        },
        "metallicRoughnessTexture": {
          "index": 1
        }
      }
    }
  ],
  "meshes": [
    {
      "name": "default_Esc_ToldoCutre_01_AG_Toldocutrre_default_0",
      "primitives": [
        {
          "attributes": {
            "NORMAL": 1,
            "POSITION": 0,
            "TANGENT": 2,
            "TEXCOORD_0": 3
          },
          "indices": 4,
          "material": 0,
          "mode": 4
        }
      ]
    }
  ],
  "nodes": [
    {
      "children": [
        1
      ],
      "matrix": [
        0.6559001207351685,
        -6.7975849855035696e-18,
        0.7548476457595825,
        0.0,
        0.7548476457595825,
        1.4563908317892084e-16,
        -0.6559001207351685,
        0.0,
        -1.0547679099173155e-16,
        1.0,
        1.006558367979847e-16,
        0.0,
        -1.4200236364558805e-05,
        -5.414250114948322e-21,
        2.4383614800171927e-05,
        1.0
      ],
      "name": "Sketchfab_model"
    },
    {
      "children": [
        2
      ],
      "matrix": [
        1.0,
        0.0,
        0.0,
        0.0,
        0.0,
        0.0,
        1.0,
        0.0,
        0.0,
        -1.0,
        0.0,
        0.0,
        0.0,
        0.0,
        0.0,
        1.0
      ],
      "name": "757e2a781f43443eb5a7171da975783c.fbx"
    },
    {
      "children": [
        3
      ],
      "name": "RootNode"
    },
    {
      "children": [
        4
      ],
      "matrix": [
        1.0,
        0.0,
        0.0,
        0.0,
        0.0,
        2.220446049250313e-16,
        -1.0,
        0.0,
        0.0,
        1.0,
        2.220446049250313e-16,
        0.0,
        -4.76837158203125e-07,
        0.0,
        2.384185791015625e-07,
        1.0
      ],
      "name": "default"
    },
    {
      "children": [
        5
      ],
      "matrix": [
        1.0,
        0.0,
        -0.0,
        0.0,
        0.0,
        1.0,
        0.0,
        0.0,
        0.0,
        0.0,
        1.0,
        0.0,
        -6.9741997718811035,
        -9.145750045776367,
        -9.149299621582031,
        1.0
      ],
      "name": "Object_4"
    },
    {
      "mesh": 0,
      "name": "default_Esc_ToldoCutre_01_AG_Toldocutrre_default_0"
    }
  ],
  "samplers": [
    {
      "magFilter": 9729,
      "minFilter": 9987,
      "wrapS": 10497,
      "wrapT": 10497
    }
  ],
  "scene": 0,
  "scenes": [
    {
      "name": "Sketchfab_Scene",
      "nodes": [
        0
      ]
    }
  ],
  "textures": [
    {
      "sampler": 0,
      "source": 0
    },
    {
      "sampler": 0,
      "source": 1
    },
    {
      "sampler": 0,
      "source": 2
    }
  ]
}
